<?xml version="1.0" encoding="UTF-8"?>
<svg xmlns="http://www.w3.org/2000/svg" viewBox="0 0 892.4 866.64">
  <defs>
    <style>
      .cls-1 {
        opacity: .1;
      }

      .cls-1, .cls-2 {
        fill-rule: evenodd;
      }

      .cls-3 {
        stroke-width: .25px;
      }

      .cls-3, .cls-4, .cls-5 {
        stroke-linecap: round;
        stroke-linejoin: round;
      }

      .cls-3, .cls-4, .cls-5, .cls-6 {
        fill: none;
        stroke: #000;
      }

      .cls-4, .cls-6 {
        stroke-width: .15px;
      }

      .cls-5 {
        stroke-width: .6px;
      }

      .cls-6 {
        stroke-miterlimit: 10;
      }

      .cls-7 {
        opacity: .4;
      }
    </style>
  </defs>
  <g id="Structure">
    <g id="LWPOLYLINE">
      <polygon class="cls-5" points="845.11 311.54 806.02 60.4 727.18 37.95 722.68 45.72 717.8 53.26 711.28 62.22 704.24 70.76 693.51 81.97 681.87 92.24 669.17 101.63 655.71 109.88 640.59 117.38 629.65 121.77 618.45 125.44 608.66 128.01 597.06 130.32 583.06 132.08 567.31 132.76 277.06 116.38 269.13 116.15 256.29 116.75 243.31 118.59 228.96 122.12 217 126.36 204.79 132.05 193.1 138.95 181.29 147.66 170.56 157.49 162.05 166.99 151.14 182.4 144.52 194.59 139.23 207.18 55.4 438.04 51.29 450.58 47.89 463.7 45.61 475.43 43.5 492.36 42.78 509.75 43.01 519.41 44.36 535.42 46.56 549.44 50.56 566.39 56.79 585.2 62.82 599.3 131.29 744.64 138.94 757.93 145.78 766.65 155.44 776.1 165.86 783.73 176.98 789.74 186.26 793.38 198.1 796.46 215.59 798.12 223.51 797.78 241.81 796.22 259.92 794.27 278.41 791.45 295.94 787.97 314.29 783.48 330.07 778.94 339.8 776.14 355.77 773.36 365.91 772.87 377.32 773.49 392.49 776.26 408.15 781.66 419.38 787.36 433.07 796.89 490.26 843.79 566.64 754.88 671.7 696.99 845.11 311.54"/>
    </g>
    <g id="LWPOLYLINE-2" data-name="LWPOLYLINE">
      <polygon class="cls-5" points="671.7 696.99 696.77 641.26 683.53 615.17 562.49 676.61 577.39 705.96 594.45 739.56 671.7 696.99"/>
    </g>
    <g id="LWPOLYLINE-3" data-name="LWPOLYLINE">
      <polygon class="cls-5" points="594.45 739.56 577.39 705.96 542.54 725.22 461.03 819.82 490.26 843.79 566.64 754.88 594.45 739.56"/>
    </g>
    <g id="POINT">
      <line class="cls-5" x1="242.79" y1="167.61" x2="242.79" y2="167.61"/>
    </g>
    <g>
      <g id="WIPEOUT">
        <polyline class="cls-5" points="472.96 672.08 473.88 674.28 483.69 670.17 500.46 710.21 488.45 715.25 490.86 720.99 458.82 734.4 456.42 728.66 444.41 733.7 427.64 693.66 437.45 689.55 436.52 687.34 472.96 672.08"/>
      </g>
      <g id="WIPEOUT-2" data-name="WIPEOUT">
        <polyline class="cls-3" points="427.64 693.66 436.02 713.68 448.03 708.64 439.65 688.62 427.64 693.66"/>
      </g>
      <g id="WIPEOUT-3" data-name="WIPEOUT">
        <polyline class="cls-3" points="483.69 670.17 492.08 690.19 480.07 695.23 471.68 675.21 483.69 670.17"/>
      </g>
      <g id="LWPOLYLINE-4" data-name="LWPOLYLINE">
        <polyline class="cls-5" points="488.45 715.25 500.46 710.21 483.69 670.17 427.64 693.66 444.41 733.7 456.42 728.66"/>
      </g>
      <g id="LWPOLYLINE-5" data-name="LWPOLYLINE">
        <rect class="cls-5" x="431.32" y="690.3" width="13.02" height="21.71" transform="translate(-236.9 223.61) rotate(-22.73)"/>
      </g>
      <g id="LWPOLYLINE-6" data-name="LWPOLYLINE">
        <rect class="cls-5" x="475.37" y="671.85" width="13.02" height="21.71" transform="translate(-226.35 239.19) rotate(-22.73)"/>
      </g>
    </g>
    <g id="WIPEOUT-4" data-name="WIPEOUT">
      <polyline class="cls-5" points="423.76 623.28 412.95 626.54 418.8 643.5 368.7 658.62 370.09 664.05 336.7 671.44 335.67 665.92 283.87 673.34 282.02 655.5 270.85 657.1 265.05 601.05 405.38 570.01 423.76 623.28"/>
    </g>
    <g id="WIPEOUT-5" data-name="WIPEOUT">
      <polyline class="cls-5" points="568.69 533.9 559.65 540.67 570.95 554.6 529.04 585.94 532.2 590.57 503.36 608.93 500.5 604.1 454.36 628.79 446.53 612.65 436.57 617.98 411.95 567.3 533.21 490.13 568.69 533.9"/>
    </g>
    <g id="WIPEOUT-6" data-name="WIPEOUT">
      <polyline class="cls-5" points="674.32 400.34 668.13 409.79 683.52 419.02 654.85 462.81 659.41 466.08 638.58 493.19 634.25 489.63 599.34 528.61 586.45 516.13 578.92 524.54 538.45 485.33 626 371.35 674.32 400.34"/>
    </g>
    <line class="cls-5" x1="584.7" y1="252.42" x2="508.12" y2="260.14"/>
    <line class="cls-5" x1="575.57" y1="205.63" x2="508.48" y2="203.1"/>
    <line class="cls-5" x1="595.83" y1="297.48" x2="518.49" y2="316.3"/>
    <path class="cls-5" d="M435.56,449.88l-1.58-2.47-72.8,30.63c1.79,2.88,3.6,5.75,5.41,8.62,4.29,6.91,8.71,13.75,13.24,20.5,8.87,11.1,24.44,14.2,36.88,7.34l17.61-9.78c13.98-7.8,19-25.45,11.2-39.43-.35-.63-.73-1.25-1.12-1.85-3.04-4.45-5.99-8.97-8.84-13.56Z"/>
    <path class="cls-5" d="M432.38,444.89c-7.03-11.09-13.87-22.3-20.5-33.63l-2.98-5.13-76.16,24.09,2.93,5.14c8.24,14.37,16.75,28.6,25.51,42.66l72.8-30.63c-.53-.83-1.07-1.67-1.59-2.51Z"/>
    <path class="cls-5" d="M399.23,389.08c-3.7-6.46-7.08-13.1-10.12-19.89-1.19-2.66-2.33-5.35-3.42-8.06l-75.48,21.42c1.01,2.73,2.06,5.44,3.14,8.13,5.5,13.63,11.98,26.84,19.38,39.54l76.16-24.09c-3.27-5.66-6.49-11.34-9.67-17.05Z"/>
    <path class="cls-5" d="M374.69,325.29c-.72-3.3-1.36-6.62-1.93-9.95l-76.96,13.55c.57,3.33,1.2,6.65,1.89,9.97,3.06,14.86,7.25,29.46,12.52,43.69l75.48-21.42c-4.67-11.62-8.35-23.61-11.01-35.84Z"/>
    <path class="cls-5" d="M369.63,282.63l-.04-7.65.4-6.88-78.53,5.56c-.07,4.83-.01,9.67.15,14.5.47,13.66,1.87,27.27,4.2,40.75l76.95-13.55c-1.84-10.82-2.89-21.75-3.13-32.72Z"/>
    <path class="cls-5" d="M371.66,239.29l.91-15.89-78.05-4.93-.96,15.89c-.74,12.57-1.42,25.15-2.06,37.73l-.03,1.57,78.53-5.56c.56-9.6,1.11-19.2,1.66-28.8Z"/>
    <path class="cls-5" d="M368.76,170.61l-66.44-3.34c2.37,5.99,1.74,12.76-1.69,18.22-.35.63-.69,1.28-1.01,1.93-2.71,5.51-4.17,11.55-4.27,17.7-.22,3.42-.44,6.84-.65,10.26l-.19,3.1,78.05,4.93.21-3.75c1.79-16.45.42-33.09-4.02-49.03Z"/>
    <path class="cls-5" d="M355.13,138.18l-49.17-2.77-21.33-1.2-1.14,20.25c8.32,0,15.79,5.08,18.84,12.82l66.44,3.34c-3.08-11.37-7.66-22.28-13.63-32.43Z"/>
    <path class="cls-5" d="M513.41,147.11l-61.32-3.46c-7.23,9.5-13.12,19.95-17.5,31.06l71.9,1.3c1.84-9.74,4.15-19.38,6.92-28.9Z"/>
    <path class="cls-5" d="M549.43,399.1c-5.69-8.94-10.92-18.16-15.66-27.64-1.44-2.88-2.83-5.78-4.18-8.7l-69.17,27.89,4.8,7.95c5.08,8.34,10.25,16.62,15.53,24.83,8.63,13.45,26.54,17.36,39.99,8.72,2.59-1.66,4.9-3.73,6.84-6.12,0,0,21.86-26.94,21.86-26.94Z"/>
    <path class="cls-5" d="M596.42,341.19c6.45-7.95,8.22-18.72,4.65-28.32-1.98-5.05-3.73-10.18-5.24-15.39l-77.34,18.82c7.84,27.53,19.55,53.81,34.78,78.06,0,0,43.14-53.17,43.14-53.17Z"/>
    <path class="cls-5" d="M584.7,252.42l-76.57,7.72c1.45,17.03,4.39,33.9,8.79,50.41.51,1.92,1.03,3.84,1.58,5.75l77.34-18.82c-.51-1.59-1-3.19-1.49-4.79-4-13.22-7.22-26.67-9.65-40.26Z"/>
    <path class="cls-5" d="M581.23,228.13c-.26-2.43-.49-4.85-.7-7.28-.76-4.04-1.93-8-3.51-11.8-.59-1.09-1.07-2.23-1.45-3.41l-67.09-2.53c-.8,8.32-1.24,16.67-1.32,25.03-.27,10.68.05,21.37.96,32.01l76.57-7.72c-1.44-8.05-2.59-16.16-3.46-24.29Z"/>
    <path class="cls-5" d="M594.86,179.18v-31.09s-10.33,1.3-10.33,1.3l-9.49.41-8.7.29-46.99-2.65c-5.41,18.16-9.05,36.8-10.86,55.65l67.09,2.53c-.68-2.11-1.01-4.33-.97-6.54.19-11.05,9.2-19.91,20.26-19.91Z"/>
    <path class="cls-5" d="M609.42,219.94c-.46,2.95-.61,5.94-.43,8.93.4,3.15.81,6.31,1.24,9.46l81.99.26c5.65-16.21,10.69-32.63,15.11-49.21l-95.34-.75c3.87,6.13,4.17,13.86.79,20.27-1.63,3.51-2.76,7.22-3.36,11.04Z"/>
    <path class="cls-5" d="M594.86,148.1v31.09c6.95,0,13.41,3.56,17.13,9.44l95.34.75c3.97-15.45,7.38-31.03,10.21-46.73,4.08-23.61,6.95-47.42,8.59-71.33-31.81,42.03-79.05,69.66-131.28,76.78Z"/>
    <path class="cls-5" d="M501.18,227.38c.13-6.48.45-12.95.99-19.41.28-3.44.63-6.88,1.02-10.31.84-7.25,1.95-14.47,3.3-21.65l-71.9-1.3c-2.72,6.87-4.88,13.95-6.48,21.17-1.96,8.83-3.08,17.83-3.35,26.88l-.43,7.75s76.83-3.13,76.83-3.13Z"/>
    <path class="cls-5" d="M501.33,244.75c-.21-5.79-.27-11.58-.15-17.37l-76.83,3.13-1,17.42c-.39,6.7-.77,13.4-1.16,20.1-.17,2.9-.34,5.8-.51,8.7-.02,3.26.06,6.52.22,9.78l81.91-12.52c-.6-4.5-1.1-9.01-1.5-13.53-.46-5.23-.79-10.47-.98-15.71Z"/>
    <path class="cls-5" d="M529.07,361.63c-1.9-4.15-3.7-8.34-5.41-12.57-2.83-7.01-5.41-14.12-7.72-21.31-.99-3.03-1.93-6.07-2.8-9.14l-79.83,21.26c1.16,3,2.41,5.96,3.76,8.88,2.26,4.97,4.75,9.83,7.47,14.57,3.72,6.59,7.51,13.16,11.35,19.68,1.51,2.55,3.02,5.11,4.53,7.66l69.17-27.89c-.17-.38-.34-.76-.51-1.14Z"/>
    <path class="cls-5" d="M511.39,312.23c-1.48-5.58-2.79-11.2-3.95-16.85-.58-2.83-1.12-5.67-1.62-8.52-.78-4.27-1.44-8.56-1.97-12.87l-81.95,12.53c.29,5.09.78,10.17,1.48,15.22,1.53,10.82,4.08,21.47,7.63,31.81.72,2.13,1.48,4.24,2.29,6.33l79.83-21.26c-.61-2.12-1.19-4.24-1.74-6.38Z"/>
    <polygon class="cls-5" points="203.77 653.86 180.7 606.7 107.25 652.86 133.08 707.69 203.77 653.86"/>
    <polygon class="cls-5" points="158.09 560.47 82.2 599.7 107.25 652.86 180.7 606.7 158.09 560.47"/>
    <path class="cls-5" d="M136.25,514.02l-73.07,29.31,4.1,18.33,5.85,17.65,5.53,12.88,3.54,7.51,75.89-39.22c-7.81-15.23-15.09-30.73-21.84-46.45Z"/>
    <path class="cls-5" d="M104.04,423.45c-1.44-5.67-4.23-10.91-8.13-15.27l-9.89-3.59c-6.13,16.37-12.01,32.82-17.66,49.36-1.82,6.51-3.39,13.09-4.72,19.73-1.35,6.24-2.27,12.57-2.77,18.93l-.69,16.67.17,9.2,1.25,14.86.88,5.59.69,4.4,73.07-29.31c-12.65-29.47-23.41-59.72-32.21-90.56Z"/>
    <path class="cls-5" d="M189.18,339.89l-70.35,6.19c-1.64,9.64-2.35,19.41-2.11,29.18,9.82,2.89,15.95,12.63,14.3,22.73-.68,2.83-1.09,5.71-1.25,8.62l70.93-12.5c-4.95-17.82-8.8-35.92-11.53-54.21Z"/>
    <path class="cls-5" d="M200.7,394.1l-70.93,12.5c-.2,3.2-.04,6.4.48,9.56,4.38,15.33,9.26,30.5,14.64,45.51l71.34-19.12c-6.12-15.84-11.3-32.02-15.53-48.46Z"/>
    <path class="cls-5" d="M238.31,490.5c-8.35-15.5-15.72-31.52-22.08-47.94l-71.34,19.12c6.61,18.44,13.96,36.61,22.03,54.46,0,0,71.39-25.63,71.39-25.63Z"/>
    <path class="cls-5" d="M238.31,490.5l-71.39,25.63c3.61,7.98,7.36,15.89,11.26,23.73,6.65,13.06,21.82,19.34,35.76,14.81l60.66-9.83c-13.05-17.46-25.17-35.6-36.29-54.34Z"/>
    <path class="cls-5" d="M326.95,474.77l-74.57,28.62,13.99,19.79,14.79,20.59,37.53-6.09c15.84-2.71,26.49-17.74,23.78-33.59-.62-3.64-1.93-7.14-3.86-10.29-4.03-6.25-7.91-12.6-11.66-19.02Z"/>
    <path class="cls-5" d="M326.95,474.77c-6.66-11.06-13.17-22.21-19.53-33.45-2.35-4.11-4.61-8.27-6.79-12.47l-72.97,26.36c7.13,16.61,15.39,32.7,24.72,48.18,0,0,74.57-28.62,74.57-28.62Z"/>
    <path class="cls-5" d="M281.47,383.77l-73.21,16.11c5.16,18.88,11.65,37.37,19.4,55.34l72.97-26.36c-7.46-14.55-13.87-29.61-19.16-45.08Z"/>
    <path class="cls-5" d="M269.08,335.66l-73.72,6.4c3.08,19.52,7.39,38.83,12.89,57.82l73.21-16.11c-5.34-15.7-9.48-31.78-12.39-48.11Z"/>
    <path class="cls-5" d="M264,283.59l-73.88-3.2c.31,20.65,2.06,41.26,5.24,61.67l73.72-6.4c-3.07-17.19-4.77-34.6-5.08-52.06Z"/>
    <path class="cls-5" d="M184.33,280.14l-52.29-2.27-25.15,69.25,82.29-7.24c-2.94-19.79-4.56-39.75-4.85-59.75Z"/>
    <path class="cls-5" d="M266.37,230.91l-76.1-13.32-34.07-5.96-24.17,66.25,53.78,2.33,78.18,3.39c-.07-4.19-.07-8.39.02-12.58.8-13.37,1.58-26.74,2.35-40.11Z"/>
    <path class="cls-5" d="M283.48,154.45l1.14-20.25-8.86-.47-6.48-.2-11.37.53-11.3,1.6-12.66,3.12-10.37,3.68-10.7,4.98-10.19,6.01-10.35,7.64-9.43,8.63-7.27,8.11-9.74,13.76-5.71,10.53-3.99,9.51,34.07,5.96,76.1,13.32c.53-9.19,1.04-18.38,1.55-27.57.2-6.92-.79-13.81-2.95-20.39-1.47-3.31-2.03-6.96-1.62-10.57,1.18-10.22,9.84-17.93,20.12-17.93Z"/>
    <path class="cls-5" d="M229.25,701.29c-3.39-3.85-6.25-8.13-8.51-12.74l-16.97-34.69-70.69,53.83,13.62,28.91,6.68,11.59,5.37,6.85,5.66,5.53s64.85-59.28,64.85-59.28Z"/>
    <path class="cls-5" d="M610.22,238.32c3.81,26.27,10.92,51.96,21.16,76.45,5.1,2.36,10.9,2.75,16.26,1.08,2.29-1.04,4.62-1.98,6.98-2.83,5.13-3.6,9.6-8.07,13.2-13.21,8.33-20.33,16.47-40.74,24.39-61.23,0,0-81.99-.26-81.99-.26Z"/>
    <path class="cls-5" d="M166.7,762.83l8.46,6.2,9.15,4.94,7.33,2.87,9.5,2.47,14.92,1.41,6.36-.27,8.87-.76,40.17-58.78c-16.19-.35-31.49-7.46-42.19-19.62l-64.85,59.28s2.3,2.25,2.3,2.25Z"/>
  </g>
  <g id="Decor">
    <path class="cls-3" d="M573.22,557.42c3.53,4.36,8.4,7.45,13.85,8.79l-1.06.91c-5.38-1.5-10.16-4.64-13.68-8.98"/>
    <path class="cls-3" d="M529.06,585.93l3.17,4.63c2.77,3.36,6.81,5.43,11.15,5.73,2.31.26,4.65-.19,6.7-1.29,5.41-3.11,10.29-7.05,14.47-11.67,3.85-5.17,3.84-12.26-.03-17.41l-3.29-4.05"/>
    <path class="cls-3" d="M529.98,585.24l3.17,4.63c2.58,3.1,6.31,5.01,10.34,5.28,2.08.24,4.19-.16,6.04-1.15,5.28-3.04,10.05-6.89,14.14-11.4,3.51-4.75,3.5-11.24-.05-15.97l-3.31-4.07"/>
    <path class="cls-3" d="M446.73,613.05l9.23,18.99c2.45,5.05,3.19,10.76,2.1,16.27l1.27-.57c.92-5.51.1-11.17-2.34-16.2l-1.6-3.29"/>
    <path class="cls-3" d="M500.48,604.12l2.85,4.84c1.87,3.93,2.04,8.47.47,12.53-.74,2.2-2.14,4.13-4,5.52-5.11,3.58-10.74,6.34-16.71,8.17-6.31,1.3-12.73-1.71-15.76-7.4l-2.28-4.7"/>
    <path class="cls-3" d="M499.47,604.66l2.85,4.83c1.72,3.65,1.87,7.84.4,11.6-.67,1.99-1.92,3.73-3.6,4.98-4.99,3.49-10.49,6.19-16.32,7.98-5.79,1.17-11.67-1.6-14.45-6.81l-2.29-4.72"/>
    <path class="cls-6" d="M559.65,540.67l8.12-6.07,13.33,16.43c2.72,3.37,6.73,5.46,11.05,5.75,1.86-.06,3.64-.79,5.02-2.04l1.56,1.1-11.66,10.38c-5.45-1.34-10.31-4.43-13.85-8.79l-13.57-16.75Z"/>
    <path class="cls-4" d="M587.49,565.83l-.48.37M596.88,557.48l-10.98,8.41M598.09,555.39l-13.26,10.16M597.3,554.83l-13.49,10.34M593.45,556.63l-10.62,8.14M591.78,556.75l-9.89,7.58M590.5,556.58l-9.51,7.29M589.32,556.32l-9.2,7.05M588.23,556l-8.95,6.86M587.22,555.62l-8.74,6.7M586.27,555.18l-8.57,6.57M585.39,554.71l-8.43,6.46M584.56,554.19l-8.32,6.37M583.77,553.63l-8.22,6.3M583.04,553.03l-8.15,6.25M582.35,552.4l-8.1,6.21M581.71,551.74l-8.07,6.19M581.11,551.04l-8.06,6.18M580.53,550.32l-8.06,6.18M579.95,549.61l-8.06,6.17M579.37,548.9l-8.05,6.17M578.79,548.18l-8.05,6.17M578.21,547.47l-8.05,6.17M577.63,546.76l-8.05,6.17M577.05,546.04l-8.05,6.17M576.48,545.33l-8.05,6.17M575.9,544.61l-8.05,6.17M575.32,543.9l-8.05,6.17M574.74,543.19l-8.05,6.17M574.16,542.47l-8.05,6.17M573.58,541.76l-8.05,6.17M573,541.05l-8.05,6.17M572.42,540.33l-8.05,6.17M571.84,539.62l-8.05,6.17M571.26,538.9l-8.05,6.17M570.68,538.19l-8.05,6.17M570.1,537.48l-8.04,6.17M569.53,536.76l-8.04,6.17M568.95,536.05l-8.04,6.17M568.37,535.34l-8.04,6.17M567.79,534.62l-8.04,6.16"/>
    <path class="cls-3" d="M559.65,540.67l8.12-6.07,13.33,16.43c2.72,3.37,6.73,5.46,11.05,5.75,1.86-.06,3.64-.79,5.02-2.04l1.56,1.1-11.66,10.38c-5.45-1.34-10.31-4.43-13.85-8.79,0,0-13.57-16.75-13.57-16.75Z"/>
    <path class="cls-6" d="M586.01,567.12c-4.57,3.92-9.2,7.77-13.9,11.53-4.7,3.76-9.46,7.45-14.28,11.05,2.41-1.94,4.66-4.07,6.73-6.37,3.61-4.83,3.85-11.39.61-16.48l-3.93-4.98,8.78-6.57,2.3,2.84c3.52,4.34,8.3,7.48,13.68,8.98Z"/>
    <path class="cls-4" d="M566.92,582.76l-7.43,5.69M585.86,567.08l-21.54,16.51M584.78,566.75l-18.94,14.52M583.75,566.38l-17.16,13.15M582.76,565.98l-15.72,12.05M581.8,565.56l-14.51,11.12M580.88,565.1l-13.46,10.32M580,564.63l-12.56,9.63M579.14,564.12l-11.78,9.03M578.32,563.6l-11.1,8.51M577.53,563.05l-10.52,8.07M576.76,562.48l-10.03,7.69M576.02,561.88l-9.62,7.37M575.31,561.27l-9.29,7.12M574.63,560.64l-9.03,6.92M573.97,559.99l-8.86,6.79M573.33,559.31l-8.79,6.74M572.73,558.62l-8.75,6.71M572.14,557.91l-8.74,6.7M571.56,557.2l-8.73,6.69M570.98,556.48l-8.72,6.68M570.4,555.77l-8.71,6.68"/>
    <path class="cls-3" d="M586.01,567.12c-4.57,3.92-9.2,7.77-13.9,11.53-4.7,3.76-9.46,7.45-14.28,11.05,2.41-1.94,4.66-4.07,6.73-6.37,3.61-4.83,3.85-11.39.61-16.48l-3.93-4.98,8.78-6.57,2.3,2.84c3.52,4.34,8.3,7.48,13.68,8.98Z"/>
    <path class="cls-6" d="M459.33,647.73l23.77-12.57c-5.91,1.22-11.95-1.34-15.19-6.43l-2.85-5.67-9.67,5.18,1.6,3.29c2.44,5.03,3.26,10.69,2.34,16.2Z"/>
    <path class="cls-4" d="M481.74,635.38l-22.3,11.59M479.6,635.46l-20.03,10.41M477.92,635.29l-18.27,9.5M476.5,635l-16.81,8.74M475.25,634.61l-15.56,8.09M474.13,634.16l-14.49,7.53M473.12,633.65l-13.55,7.05M472.2,633.09l-12.74,6.63M471.36,632.49l-12.05,6.26M470.58,631.86l-11.45,5.95M469.87,631.2l-10.95,5.69M469.22,630.5l-10.54,5.48M468.63,629.77l-10.22,5.31M468.09,629.02l-9.98,5.19M467.64,628.21l-9.86,5.13M467.23,627.39l-9.8,5.1M466.82,626.57l-9.77,5.08M466.41,625.75l-9.76,5.08M465.99,624.93l-9.75,5.07M465.58,624.11l-9.74,5.06M465.17,623.29l-9.73,5.06"/>
    <path class="cls-3" d="M459.33,647.73l23.77-12.57c-5.91,1.22-11.95-1.34-15.19-6.43l-2.85-5.67-9.67,5.18,1.6,3.29c2.44,5.03,3.26,10.69,2.34,16.2Z"/>
    <path class="cls-3" d="M418.8,643.53l1.17,3.39c1.83,5.31,5.34,9.87,10.01,13l-1.3.49c-4.54-3.25-7.96-7.83-9.79-13.11l-1.19-3.46"/>
    <path class="cls-3" d="M369.82,658.28l1.4,5.43c1.36,3.8,4.22,6.87,7.91,8.49,1.88.94,3.99,1.28,6.07.99,6-1.05,11.8-3.03,17.19-5.87,4.93-3.26,7.13-9.37,5.42-15.03l-1.71-4.96"/>
    <path class="cls-4" d="M428.67,660.41l-25.7,7.9c5.04-3.31,7.51-9.39,6.21-15.28l-1.99-6.03,10.5-3.17,1.19,3.46c1.82,5.28,5.24,9.86,9.79,13.11Z"/>
    <path class="cls-4" d="M428.55,660.32l-16.94,5.33M427.65,659.64l-22.76,7.16M426.8,658.95l-20.62,6.49M426,658.23l-18.89,5.95M425.25,657.51l-17.43,5.49M424.54,656.77l-16.18,5.09M423.87,656.01l-15.1,4.75M423.24,655.25l-14.16,4.46M422.65,654.47l-13.34,4.2M422.09,653.69l-12.65,3.98M421.57,652.89l-12.05,3.79M421.07,652.08l-11.56,3.64M420.62,651.26l-11.16,3.51M420.19,650.43l-10.85,3.42M419.79,649.59l-10.64,3.35M419.43,648.74l-10.57,3.33M419.09,647.89l-10.52,3.31M418.79,647.02l-10.5,3.31M418.49,646.15l-10.49,3.3M418.19,645.28l-10.48,3.3M417.89,644.41l-10.47,3.29"/>
    <path class="cls-3" d="M428.67,660.41l-25.7,7.9c5.04-3.31,7.51-9.39,6.21-15.28l-1.99-6.03,10.5-3.17,1.19,3.46c1.82,5.28,5.24,9.86,9.79,13.11Z"/>
    <path class="cls-3" d="M601.94,531.12c3.78,3.66,6.35,8.39,7.36,13.55.15.29.5.4.79.25.22-.11.34-.35.31-.6-1.07-5.35-3.74-10.24-7.66-14.03"/>
    <path class="cls-3" d="M634.24,489.65l4.33,3.57c3.1,3.06,4.81,7.26,4.72,11.61.05,2.33-.6,4.61-1.87,6.56-3.57,5.11-7.93,9.63-12.9,13.39-5.49,3.38-12.55,2.75-17.34-1.56l-3.75-3.64"/>
    <path class="cls-3" d="M633.47,490.5l4.33,3.57c2.86,2.84,4.43,6.73,4.34,10.76.05,2.1-.53,4.16-1.67,5.91-3.49,4.99-7.74,9.4-12.6,13.08-5.04,3.08-11.51,2.49-15.91-1.45l-3.76-3.65"/>
    <path class="cls-3" d="M668.51,410.02l18.11,10.86c4.07,2.44,8.73,3.71,13.48,3.67.23.12.36.37.32.63-.05.34-.36.57-.69.52-4.83-.03-9.56-1.36-13.7-3.84"/>
    <path class="cls-3" d="M673.73,401.32l18.11,10.86c3.64,2.18,8,2.79,12.1,1.69l.71-1.42c-4.06,1.41-8.53.96-12.21-1.25l-18.11-10.86"/>
    <path class="cls-3" d="M654.87,462.78l4.56,3.27c3.75,2.21,8.25,2.78,12.44,1.57,2.26-.55,4.3-1.77,5.85-3.5,4.02-4.77,7.26-10.14,9.61-15.92,1.86-6.17-.58-12.83-5.98-16.35l-4.48-2.68"/>
    <path class="cls-3" d="M655.5,461.82l4.56,3.27c3.48,2.03,7.65,2.55,11.52,1.42,2.04-.49,3.88-1.58,5.28-3.14,3.92-4.66,7.09-9.91,9.39-15.55,1.68-5.67-.56-11.76-5.51-14.99l-4.5-2.7"/>
    <path class="cls-6" d="M586.44,516.16l-6.75,7.52,15.19,14.73c3.14,3,4.86,7.18,4.76,11.51-.22,1.85-1.1,3.56-2.47,4.82l1.56,1.1,10.75-10.15c-.86-5.55-3.5-10.66-7.53-14.57l-15.5-14.96Z"/>
    <path class="cls-4" d="M609.37,545.03l-4.09,4.62M609.14,543.9l-10.51,11.86M608.87,542.82l-10.99,12.41M608.56,541.78l-10.08,11.38M608.22,540.78l-8.69,9.81M607.84,539.82l-8.21,9.27M607.44,538.89l-7.89,8.91M607.01,537.99l-7.64,8.63M606.55,537.13l-7.44,8.4M606.06,536.29l-7.27,8.21M605.55,535.48l-7.13,8.05M605.02,534.7l-7.02,7.92M604.46,533.94l-6.93,7.82M603.88,533.21l-6.85,7.74M603.27,532.51l-6.8,7.68M602.65,531.83l-6.76,7.63M602,531.17l-6.74,7.61M601.34,530.54l-6.73,7.6M600.68,529.9l-6.73,7.6M600.02,529.26l-6.73,7.6M599.35,528.62l-6.73,7.6M598.69,527.98l-6.73,7.6M598.03,527.34l-6.73,7.59M597.37,526.7l-6.72,7.59M596.71,526.06l-6.72,7.59M596.04,525.43l-6.72,7.59M595.38,524.79l-6.72,7.59M594.72,524.15l-6.72,7.59M594.06,523.51l-6.72,7.59M593.4,522.87l-6.72,7.58M592.74,522.23l-6.71,7.58M592.07,521.59l-6.71,7.58M591.41,520.96l-6.71,7.58M590.75,520.32l-6.71,7.58M590.09,519.68l-6.71,7.58M589.43,519.04l-6.71,7.57M588.76,518.4l-6.71,7.57M588.1,517.76l-6.7,7.57M587.44,517.12l-6.7,7.57M586.78,516.48l-6.7,7.57"/>
    <path class="cls-3" d="M586.44,516.16l-6.75,7.52,15.19,14.73c3.14,3,4.86,7.18,4.76,11.51-.22,1.85-1.1,3.56-2.47,4.82l1.56,1.1,10.75-10.15c-.86-5.55-3.5-10.66-7.53-14.57,0,0-15.5-14.96-15.5-14.96Z"/>
    <path class="cls-6" d="M610.48,544.71l18.04-19.94c-5.13,3.17-11.69,2.83-16.47-.84l-4.57-4.4-7.36,8.22,2.62,2.54c4.01,3.89,6.72,8.93,7.74,14.42Z"/>
    <path class="cls-4" d="M626.32,525.88l-16,18.07M624.59,526.46l-14.52,16.4M623.08,526.77l-13.31,15.03M621.73,526.91l-12.29,13.88M620.49,526.93l-11.41,12.88M619.33,526.85l-10.64,12.02M618.24,526.69l-9.97,11.26M617.22,526.46l-9.39,10.61M616.25,526.17l-8.89,10.04M615.33,525.83l-8.47,9.56M614.45,525.43l-8.11,9.16M613.62,524.98l-7.82,8.83M612.83,524.49l-7.59,8.57M612.08,523.95l-7.43,8.39M611.41,523.32l-7.37,8.32M610.75,522.68l-7.34,8.28M610.09,522.04l-7.32,8.27M609.42,521.41l-7.32,8.27M608.76,520.77l-7.32,8.27M608.1,520.13l-7.32,8.26M600.44,527.39l-.32.36"/>
    <path class="cls-3" d="M610.48,544.71l18.04-19.94c-5.13,3.17-11.69,2.83-16.47-.84l-4.57-4.4-7.36,8.22,2.62,2.54c4.01,3.89,6.72,8.93,7.74,14.42Z"/>
    <path class="cls-6" d="M668.13,409.8l5.55-8.48,18.14,10.88c3.64,2.18,8,2.79,12.1,1.69-.76,1.7-1.29,3.5-1.59,5.34l-1.59,5.34c-4.97.17-9.88-1.1-14.15-3.66l-18.48-11.1Z"/>
    <path class="cls-4" d="M701.22,422.99l-1.04,1.57M702.12,419.97l-3.03,4.58M702.71,417.41l-4.69,7.08M703.88,413.98l-6.9,10.42M702.66,414.16l-6.7,10.1M701.44,414.33l-6.47,9.76M700.29,414.41l-6.28,9.48M699.2,414.4l-6.13,9.25M698.15,414.32l-6,9.06M697.14,414.17l-5.9,8.9M696.17,413.97l-5.81,8.77M695.24,413.71l-5.75,8.67M694.34,413.41l-5.69,8.59M693.48,413.05l-5.65,8.53M692.64,412.64l-5.62,8.49M691.84,412.2l-5.61,8.47M691.05,411.72l-5.61,8.47M690.26,411.25l-5.61,8.47M689.47,410.78l-5.61,8.47M688.68,410.3l-5.61,8.46M687.89,409.83l-5.61,8.46M687.11,409.36l-5.61,8.46M686.32,408.88l-5.61,8.46M685.53,408.41l-5.61,8.46M684.74,407.94l-5.61,8.46M683.95,407.47l-5.61,8.46M683.16,406.99l-5.61,8.46M682.37,406.52l-5.61,8.46M681.58,406.05l-5.61,8.46M680.79,405.57l-5.6,8.46M680.01,405.1l-5.6,8.46M679.22,404.63l-5.6,8.46M678.43,404.16l-5.6,8.46M677.64,403.68l-5.6,8.46M676.85,403.21l-5.6,8.46M676.06,402.74l-5.6,8.45M675.27,402.26l-5.6,8.45M674.48,401.79l-5.6,8.45M673.69,401.32l-.85,1.29"/>
    <path class="cls-3" d="M668.13,409.8l5.55-8.48,18.14,10.88c3.64,2.18,8,2.79,12.1,1.69-.76,1.7-1.29,3.5-1.59,5.34l-1.59,5.34c-4.97.17-9.88-1.1-14.15-3.66,0,0-18.48-11.1-18.48-11.1Z"/>
    <path class="cls-6" d="M700.36,425.71c-1.84,5.3-4.28,10.36-7.28,15.1-3.14,5.19-6.39,10.32-9.73,15.39,1.53-2.56,2.86-5.24,3.98-8,1.74-5.78-.28-12.02-5.06-15.69l-5.39-3.33,6.01-9.17,3.13,1.88c4.32,2.61,9.3,3.94,14.34,3.83Z"/>
    <path class="cls-4" d="M695.76,436.22l-9.3,14.04M698.61,430.25l-10.92,16.48M700.18,426.22l-12.25,18.49M699.41,425.71l-11.5,17.35M698.34,425.68l-10.58,15.97M697.29,425.6l-9.8,14.79M696.26,425.48l-9.12,13.76M695.26,425.33l-8.53,12.87M694.28,425.14l-8.02,12.1M693.33,424.92l-7.57,11.43M692.39,424.67l-7.19,10.85M691.48,424.39l-6.87,10.37M690.58,424.07l-6.61,9.97M689.71,423.73l-6.39,9.65M688.85,423.36l-6.24,9.41M688.01,422.97l-6.15,9.28M687.19,422.54l-6.11,9.22M686.38,422.09l-6.09,9.19M685.59,421.62l-6.08,9.18M684.8,421.15l-6.07,9.17M684.02,420.67l-6.07,9.16M683.23,420.2l-6.06,9.15"/>
    <path class="cls-3" d="M700.36,425.71c-1.84,5.3-4.28,10.36-7.28,15.1-3.14,5.19-6.39,10.32-9.73,15.39,1.53-2.56,2.86-5.24,3.98-8,1.74-5.78-.28-12.02-5.06-15.69l-5.39-3.33,6.01-9.17,3.13,1.88c4.32,2.61,9.3,3.94,14.34,3.83Z"/>
    <path class="cls-3" d="M568.69,533.9l13.3,16.4c2.51,3.1,6.2,5.02,10.18,5.32,3.23-.13,5.9-2.58,6.31-5.78.06-3.99-1.53-7.83-4.4-10.61l-15.17-14.69"/>
    <path class="cls-3" d="M567.77,534.6l13.33,16.43c2.72,3.37,6.73,5.46,11.05,5.75,3.85-.12,7.03-3.04,7.49-6.86.08-4.33-1.64-8.5-4.75-11.52l-15.2-14.72"/>
    <path class="cls-6" d="M446.53,612.65l-8.93,4.78,9.23,19.04c1.9,3.89,2.09,8.4.53,12.45-.84,1.66-2.25,2.97-3.98,3.68l.33,1.88,14.34-6.17c1.09-5.51.36-11.22-2.1-16.27l-9.43-19.39Z"/>
    <path class="cls-4" d="M458.09,648.11l-2.79,1.38M458.29,646.9l-14.53,7.55M458.42,645.8l-14.87,7.73M458.51,644.72l-13.78,7.16M458.54,643.66l-11.65,6.06M458.54,642.63l-10.96,5.7M458.49,641.62l-10.55,5.49M458.41,640.63l-10.22,5.32M458.29,639.65l-9.95,5.18M458.13,638.7l-9.73,5.06M457.94,637.76l-9.55,4.96M457.72,636.84l-9.4,4.89M457.47,635.94l-9.27,4.82M457.19,635.05l-9.18,4.77M456.87,634.17l-9.1,4.73M456.53,633.32l-9.05,4.71M456.16,632.47l-9.02,4.69M455.76,631.65l-9.01,4.68M455.36,630.82l-9.01,4.68M454.96,629.99l-9,4.68M454.56,629.17l-9,4.68M454.15,628.34l-9,4.68M453.75,627.51l-9,4.68M453.35,626.69l-9,4.68M452.95,625.86l-9,4.68M452.55,625.03l-9,4.68M452.14,624.21l-9,4.68M451.74,623.38l-9,4.68M451.34,622.55l-9,4.68M450.94,621.73l-9,4.68M450.54,620.9l-9,4.68M450.13,620.07l-8.99,4.68M449.73,619.25l-8.99,4.68M449.33,618.42l-8.99,4.68M448.93,617.59l-8.99,4.68M448.53,616.77l-8.99,4.67M448.12,615.94l-8.99,4.67M447.72,615.11l-8.99,4.67M447.32,614.29l-8.99,4.67M446.92,613.46l-8.99,4.67"/>
    <path class="cls-3" d="M446.53,612.65l-8.93,4.78,9.23,19.04c1.9,3.89,2.09,8.4.53,12.45-.84,1.66-2.25,2.97-3.98,3.68l.33,1.88,14.34-6.17c1.09-5.51.36-11.22-2.1-16.27,0,0-9.43-19.39-9.43-19.39Z"/>
    <path class="cls-6" d="M412.95,626.54l9.7-2.93,6.91,20c1.39,4.11,4.44,7.44,8.41,9.18,1.77.58,3.69.51,5.41-.2l.33,1.88-13.75,5.44c-4.66-3.13-8.18-7.69-10.01-13l-7.02-20.38Z"/>
    <path class="cls-4" d="M437.79,656.82l-8.45,2.66M443.64,654.02l-15.2,4.79M443.47,653.11l-15.89,5M440.16,653.19l-13.38,4.21M438.15,652.86l-12.12,3.81M436.91,652.28l-11.58,3.65M435.84,651.66l-11.18,3.52M434.88,650.99l-10.85,3.41M434.03,650.3l-10.58,3.33M433.26,649.58l-10.36,3.26M432.56,648.83l-10.18,3.2M431.93,648.07l-10.03,3.16M431.37,647.28l-9.91,3.12M430.86,646.48l-9.82,3.09M430.41,645.66l-9.75,3.07M430.02,644.82l-9.71,3.06M429.68,643.96l-9.68,3.05M429.38,643.09l-9.68,3.05M429.08,642.23l-9.68,3.05M428.78,641.36l-9.68,3.05M428.48,640.49l-9.68,3.05M428.18,639.62l-9.68,3.05M427.88,638.75l-9.68,3.05M427.58,637.88l-9.68,3.05M427.28,637.01l-9.68,3.05M426.98,636.14l-9.68,3.05M426.68,635.27l-9.67,3.05M426.38,634.41l-9.67,3.04M426.08,633.54l-9.67,3.04M425.78,632.67l-9.67,3.04M425.48,631.8l-9.67,3.04M425.18,630.93l-9.67,3.04M424.88,630.06l-9.67,3.04M424.58,629.19l-9.67,3.04M424.27,628.32l-9.67,3.04M423.97,627.46l-9.67,3.04M423.67,626.59l-9.67,3.04M423.37,625.72l-9.66,3.04M423.07,624.85l-9.66,3.04M422.77,623.98l-9.66,3.04"/>
    <path class="cls-3" d="M412.95,626.54l9.7-2.93,6.91,20c1.39,4.11,4.44,7.44,8.41,9.18,1.77.58,3.69.51,5.41-.2l.33,1.88-13.75,5.44c-4.66-3.13-8.18-7.69-10.01-13l-1.17-3.39"/>
    <line class="cls-4" x1="418.8" y1="643.53" x2="418.72" y2="643.32"/>
    <path class="cls-4" d="M436.57,617.98l9.23,18.99c1.74,3.59,1.93,7.74.51,11.47-1.49,2.87-4.83,4.25-7.91,3.27-3.64-1.64-6.44-4.7-7.74-8.48l-6.89-19.96"/>
    <path class="cls-4" d="M437.59,617.44l9.24,19.04c1.9,3.89,2.09,8.4.53,12.45-1.74,3.43-5.73,5.08-9.39,3.88-3.96-1.76-7.01-5.09-8.42-9.18l-6.9-20"/>
    <path class="cls-3" d="M334.51,666.09l1.03,5.52c.37,4.02-.93,8.01-3.59,11.04-1.31,1.64-3.08,2.84-5.08,3.45-5.88,1.58-11.98,2.23-18.06,1.92-5.84-.88-10.42-5.49-11.25-11.34l-.54-5.22"/>
    <path class="cls-4" d="M282.06,692.84c11.42-.84,22.81-2.06,34.14-3.68-2.5.09-5,.09-7.51,0-6.27-.2-11.42-5-12.08-11.23l-.73-6.3-10.86,1.56.38,3.64c.57,5.56-.59,11.16-3.34,16.02Z"/>
    <path class="cls-4" d="M293.72,691.85l-9.25.81M313.16,689.22l-30.6,2.68M306.46,688.89l-23.43,2.05M304.18,688.16l-20.72,1.81M302.64,687.38l-18.8,1.64M301.44,686.56l-17.27,1.51M300.46,685.72l-15.99,1.4M299.64,684.87l-14.92,1.31M298.96,684.01l-14.01,1.23M298.37,683.14l-13.25,1.16M297.89,682.26l-12.61,1.1M297.48,681.37l-12.09,1.06M297.16,680.48l-11.68,1.02M296.9,679.58l-11.38,1M296.72,678.67l-11.17.98M296.6,677.76l-11.07.97M296.49,676.85l-11.01.96M296.38,675.93l-10.98.96M296.28,675.02l-10.96.96M296.17,674.11l-10.95.96M296.06,673.19l-10.94.96M295.96,672.28l-10.93.96"/>
    <path class="cls-3" d="M282.06,692.84c11.42-.84,22.81-2.06,34.14-3.68-2.5.09-5,.09-7.51,0-6.27-.2-11.42-5-12.08-11.23l-.73-6.3-10.86,1.56.38,3.64c.57,5.56-.59,11.16-3.34,16.02Z"/>
    <path class="cls-4" d="M282.03,655.5l-10.03,1.44,2.17,21.05c.48,4.31-.89,8.62-3.76,11.88-1.14,1.07-2.58,1.77-4.12,2.01,4.66,1.33,9.53,1.72,14.33,1.15,2.94-4.82,4.21-10.47,3.64-16.09l-2.23-21.44Z"/>
    <path class="cls-4" d="M280.65,692.99l-3.01.26M281.21,692.02l-10.09.88M281.71,691.05l-13.91,1.22M282.16,690.09l-13.96,1.22M282.57,689.13l-12.59,1.1M282.93,688.18l-11.99,1.05M283.24,687.23l-11.59,1.01M283.51,686.28l-11.26.98M283.75,685.34l-10.99.96M283.94,684.4l-10.77.94M284.1,683.46l-10.59.93M284.23,682.53l-10.44.91M284.32,681.6l-10.32.9M284.37,680.67l-10.23.9M284.4,679.75l-10.17.89M284.39,678.83l-10.13.89M284.34,677.91l-10.11.88M284.27,676.99l-10.11.88M284.17,676.08l-10.11.88M284.08,675.16l-10.11.88M283.98,674.25l-10.11.88M283.89,673.34l-10.11.88M283.79,672.42l-10.11.88M283.69,671.51l-10.1.88M283.6,670.59l-10.1.88M283.5,669.68l-10.1.88M283.41,668.77l-10.1.88M283.31,667.85l-10.1.88M283.22,666.94l-10.1.88M283.12,666.02l-10.1.88M283.03,665.11l-10.1.88M282.93,664.2l-10.1.88M282.84,663.28l-10.1.88M282.74,662.37l-10.1.88M282.65,661.45l-10.09.88M282.55,660.54l-10.09.88M282.46,659.63l-10.09.88M282.36,658.71l-10.09.88M282.27,657.8l-10.09.88M282.17,656.88l-10.09.88M282.08,655.97l-8.64.76"/>
    <path class="cls-3" d="M282.03,655.5l-10.03,1.44,2.17,21.05c.48,4.31-.89,8.62-3.76,11.88-1.14,1.07-2.58,1.77-4.12,2.01,4.66,1.33,9.53,1.72,14.33,1.15,2.94-4.82,4.21-10.47,3.64-16.09,0,0-2.23-21.44-2.23-21.44Z"/>
    <path class="cls-3" d="M263.13,690.81c2.31.44,4.69-.21,6.45-1.76,2.61-3.02,3.86-6.98,3.45-10.95l-2.17-21"/>
    <path class="cls-3" d="M266.29,691.87c1.54-.24,2.98-.94,4.12-2.01,2.85-3.27,4.21-7.57,3.76-11.88l-2.18-21.05"/>
    <path class="cls-7" d="M366.24,682.43l-18.41,4.08c-.26.07-.54.07-.8-.01-.71-.22-1.1-.98-.88-1.69.46-1.02.95-2.03,1.46-3.02.16-.28.34-.56.52-.82,3.7-5.31,11.01-6.61,16.31-2.91.89.69,1.75,1.4,2.6,2.13.18.2.3.45.34.72.11.74-.41,1.42-1.14,1.52Z"/>
    <path class="cls-7" d="M534.88,609.17l-15.91,10.12c-.22.16-.48.25-.75.27-.74.03-1.37-.55-1.4-1.29.08-1.12.19-2.23.33-3.34.06-.32.13-.64.21-.95,1.67-6.25,8.08-9.97,14.34-8.31,1.06.34,2.12.71,3.16,1.11.24.13.44.32.57.56.35.66.1,1.48-.55,1.83Z"/>
    <path class="cls-7" d="M668.28,482.64l-11.48,14.95c-.15.23-.36.4-.61.51-.69.28-1.48-.05-1.76-.73-.31-1.08-.59-2.17-.83-3.26-.06-.32-.1-.64-.13-.96-.57-6.44,4.19-12.13,10.63-12.71,1.12-.04,2.24-.06,3.36-.04.27.04.52.15.72.33.55.5.6,1.35.1,1.91Z"/>
    <path class="cls-7" d="M495.43,480.65c0,3.72-3.01,6.74-6.73,6.74s-6.74-3.02-6.74-6.74,3.02-6.73,6.74-6.73,6.73,3.02,6.73,6.73Z"/>
    <path class="cls-7" d="M474.25,461.29c-.71.37-1.59.1-1.97-.61-18.49-27.12-35.73-55.06-51.66-83.76-2.76-4.81-5.31-9.72-7.66-14.74-12.64-27.02-19.05-56.53-18.77-86.35,1.39-23.76,2.75-47.51,4.08-71.27.1-.69.68-1.21,1.38-1.23.8-.03,1.46.6,1.48,1.39-1.3,23.74-2.65,47.47-4.05,71.2-.27,30.27,6.45,60.2,19.65,87.44,1.99,4.12,4.13,8.16,6.41,12.13,15.89,28.63,33.08,56.51,51.53,83.56.07.08.14.17.19.27.37.71.1,1.59-.61,1.97Z"/>
    <path class="cls-7" d="M476.41,127.81c-9.84,3.24-18.61,9.12-25.34,17-8.03,11.05-14.37,23.24-18.79,36.16l1.71-30.35c.19-3.36,1.55-6.56,3.85-9.03,7.22-7.85,16.94-12.94,27.5-14.4l11.07.62Z"/>
    <path class="cls-7" d="M416.63,124.35c-3.13,3.53-7.72,5.41-12.42,5.09-4.59-.31-8.79-2.68-11.43-6.44l23.85,1.35Z"/>
    <path class="cls-7" d="M372.08,146.8l-1.7,30.34c-2.95-13.33-7.88-26.15-14.62-38.03-5.82-8.85-14.21-15.71-24.04-19.65l13.21.75c9.75,2.96,18.28,8.99,24.34,17.18,2,2.71,3,6.04,2.81,9.41Z"/>
    <path class="cls-2" d="M355.75,139.11c-5.82-8.85-14.21-15.71-24.04-19.65,9.83,3.94,18.22,10.8,24.04,19.65Z"/>
    <path class="cls-2" d="M331.72,119.47l13.25.76s-.03,0-.04-.01l-13.21-.75Z"/>
    <path class="cls-2" d="M451.07,144.82c6.73-7.88,15.5-13.76,25.34-17-9.85,3.24-18.61,9.12-25.34,17Z"/>
    <path class="cls-1" d="M816.73,265.74c-3.9-7.22-12.92-9.92-20.15-6.02-1.73.93-3.25,2.2-4.49,3.72-20.38,18.29-36.2,41.1-46.2,66.59-1.33,2.15-4.04,2.99-6.35,1.96-2.54-1.14-3.68-4.12-2.55-6.66,10.78-35.54,29.45-68.18,54.61-95.5,9.66-6.02,12.62-18.73,6.6-28.39s-18.73-12.62-28.39-6.6c-3.56,2.22-6.37,5.48-8.03,9.33-12.2,29.44-24.92,58.67-38.16,87.67-.12.24-.26.48-.41.7-1.73,2.52-5.17,3.15-7.69,1.42s-3.15-5.17-1.42-7.69c21.7-39.91,34.26-84.14,36.76-129.5,2.17-9.42-3.7-18.81-13.11-20.98s-18.81,3.7-20.98,13.11c-.31,1.35-.46,2.73-.45,4.11-4.56,53.03-19.71,104.6-44.57,151.67-2.1,4.37-4.84,8.4-8.12,11.96-7.57,8.06-17.08,14.05-27.62,17.4-1.04.28-2.15.22-3.16-.15.68-6.42.18-12.9-1.46-19.14-3.74-9.05-7.07-18.27-9.98-27.62-6.16-19.81-10.42-40.16-12.7-60.78.21-6.04,1.6-11.99,4.09-17.5,5.21-9.91,1.4-22.16-8.51-27.37-9.91-5.21-22.16-1.4-27.37,8.51-3.17,6.03-3.1,13.25.19,19.21,2.14,5.22,3.52,10.71,4.12,16.32,2.73,29.85,9.4,59.21,19.85,87.31,3.57,9.6,1.8,20.37-4.65,28.32l-68.85,84.85c-1.94,2.39-4.25,4.46-6.84,6.12-13.45,8.63-31.35,4.73-39.99-8.72-12.64-19.69-24.72-39.74-36.23-60.12-15.13-26.34-23.01-56.21-22.84-86.58,1.04-17.83,2.07-35.67,3.08-53.5.38-14.39,2.91-28.63,7.52-42.26l1.71-30.34c.19-3.37,1.55-6.56,3.85-9.04,7.22-7.85,16.94-12.94,27.5-14.4l11.07.62-120.76-6.97-.27-.02h0s0,0,0,0h0l-10.4-.6c9.73,2.96,18.25,8.98,24.3,17.16,2.01,2.71,3,6.04,2.81,9.41l-1.7,30.34c3.15,13.94,3.96,28.3,2.41,42.5-1.05,18.45-2.11,36.89-3.19,55.33-.49,40,9.74,79.4,29.64,114.1,14.08,25.36,29.15,50.16,45.16,74.35.4.6.77,1.22,1.12,1.85,7.8,13.98,2.78,31.64-11.2,39.43l-17.61,9.78c-13.25,7.36-29.94,3.25-38.25-9.43-16.56-25.25-32.28-51.04-47.14-77.34-27.08-47.33-40.85-101.12-39.83-155.64,1.13-22.33,2.42-44.66,3.86-66.97.11-6.88,1.93-13.62,5.28-19.63,5.95-9.47,3.09-21.98-6.38-27.93-9.48-5.95-21.98-3.09-27.93,6.38-3.59,5.72-4.1,12.84-1.35,19.01,2.15,6.57,3.15,13.47,2.95,20.39l-3.9,67.68c-1.22,59.65,13.79,118.51,43.4,170.3,10.02,17.71,20.42,35.21,31.18,52.48,1.93,3.15,3.24,6.65,3.86,10.29,2.71,15.84-7.94,30.88-23.78,33.59l-109.94,17.89c-12.53,2.04-24.92-4.32-30.57-15.69-19.71-39.69-35.75-81.09-47.93-123.7-.93-6.05-.67-12.23.77-18.18,1.81-11.04-5.67-21.46-16.71-23.27s-21.46,5.67-23.27,16.71c-.99,6.04.8,12.2,4.87,16.76,3.9,4.36,6.69,9.6,8.13,15.27,13.51,47.33,31.61,93.22,54.05,137.02l62.65,128.09c9.53,19.41,29.09,31.89,50.71,32.36,10.64.23,21.28-.52,31.78-2.25,170.73-18.89,323.09-115.77,412.62-262.36,4.66-6.22,10.18-11.74,16.4-16.4,9.78-5.44,13.3-17.77,7.86-27.55-5.44-9.78-17.77-13.3-27.55-7.86-5.18,2.88-8.84,7.89-10.01,13.7-1.87,8.02-5.06,15.67-9.46,22.63-4.83,7.96-9.87,15.8-15.12,23.49-5.16,4.51-12.63,5.22-18.55,1.78l-2.13,2.77-16.56,21.56h0l-2.13,2.78c4.86,4.83,6.09,12.23,3.07,18.38-27.07,31.39-57.76,59.48-91.42,83.68-6.39,2.47-13.65.59-18.03-4.68l-14.42,9.18-11.47,7.3-2.95,1.88c2.91,6.2,1.54,13.57-3.4,18.32-36.18,20.24-74.62,36.14-114.52,47.37-6.85.14-13.03-4.11-15.35-10.56l-3.41.76h0s-26.56,5.87-26.56,5.87h0s-3.41.76-3.41.76c.61,6.82-3.19,13.28-9.46,16.05-6.01.98-12.04,1.85-18.08,2.62-9.57,1.22-19.17,2.2-28.8,2.94-14.73,1.66-29-5.77-36.08-18.79-11.2-22.63-22.14-45.38-32.83-68.26-.41-1.06-.67-2.17-.77-3.3-.59-6.61,4.3-12.44,10.9-13.02l18.24.65h.16c33.07-.32,66.02-4.14,98.29-11.41,1.82-.41,3.63-.83,5.44-1.26l5.6-1.37c16.79-4.22,33.32-9.36,49.54-15.41l5.38-2.05c16.18-6.27,31.99-13.43,47.38-21.46l5.09-2.7c15.44-8.3,30.4-17.47,44.81-27.46l3.43-2.61c13.36-11.93,25.88-24.77,37.46-38.43l3.84-4.38c28.49-32.71,54.59-67.44,78.08-103.91,2.03-3.09,3.71-6.4,5.01-9.85,3.37-2.62,7.08-4.77,11.03-6.4,11.31-3.79,21.49-10.34,29.61-19.07,3.77-4.09,6.93-8.71,9.38-13.7,25.5-48.27,41.03-101.18,45.64-155.58-.05-1.02.08-2.04.38-3.02,1.43-4.65,6.36-7.27,11.01-5.84s7.27,6.36,5.84,11.01c-2.31,44.26-14.47,87.44-35.6,126.39-4.19,6.64-2.2,15.41,4.43,19.6s15.41,2.2,19.6-4.43c.3-.47.57-.96.81-1.46,13.28-29.09,26.05-58.42,38.29-87.97,1.1-2.53,3.05-4.59,5.5-5.85,5.87-3,13.05-.67,16.05,5.2,3,5.87.67,13.05-5.2,16.05-26.41,28.37-46.01,62.38-57.32,99.45-2.75,7.07.75,15.02,7.82,17.77,6.52,2.54,13.91-.24,17.14-6.45,9.59-24.71,24.93-46.78,44.75-64.39.65-.97,1.57-1.74,2.64-2.21,3.13-1.38,6.78.04,8.15,3.17s-.04,6.78-3.17,8.15c-24.68,18.2-37.45,48.42-33.31,78.8,4.58,30.97-7.04,62.12-30.78,82.53-33.36,23.36-44.57,67.63-26.36,104.06l7.77-3.88c-16.36-32.71-6.17-72.48,23.91-93.3,26.21-22.32,39.08-56.56,34.06-90.62-3.66-26.96,7.54-53.8,29.28-70.16,7.22-3.9,9.92-12.92,6.02-20.15Z"/>
    <path class="cls-1" d="M430.54,150.1c.02-.22.05-.43.08-.65-.03.3-.07.61-.09.92v-.26Z"/>
    <path class="cls-1" d="M431.96,144.34c.11-.27.25-.52.37-.78-.13.26-.26.52-.37.78Z"/>
    <path class="cls-1" d="M430.71,148.74c.04-.27.1-.54.15-.81-.05.27-.11.54-.15.81Z"/>
    <path class="cls-1" d="M431,147.23c.07-.27.15-.54.23-.8-.08.27-.16.53-.23.8Z"/>
    <path class="cls-1" d="M431.42,145.77c.09-.27.2-.53.3-.79-.1.26-.21.52-.3.79Z"/>
    <path class="cls-1" d="M433.4,141.66c.19-.28.39-.56.59-.83-.2.27-.41.55-.59.83Z"/>
    <path class="cls-1" d="M432.62,142.97c.14-.27.31-.53.46-.79-.16.26-.32.52-.46.79Z"/>
    <path class="cls-1" d="M434.29,140.41c.32-.4.65-.8,1-1.17-.35.38-.68.77-1,1.17Z"/>
    <g id="HATCH">
      <path class="cls-3" d="M92.87,385.72l14.01-38.59,11.94-1.05c-1.64,9.64-2.35,19.41-2.11,29.18-9.43-2.75-19.48,1.66-23.85,10.46Z"/>
      <path class="cls-3" d="M115.86,370.64l-.66.74M115.86,363.29l-.66.74M108.51,370.64l-.66.74M115.86,355.94l-.66.74M108.51,363.29l-.66.74M101.16,370.64l-.66.74M115.86,348.59l-.66.74M108.51,355.94l-.66.74M101.16,363.29l-.24.27M108.51,348.59l-.66.74M115.15,371.38l-1.69.15M107.8,371.38l-1.69.15M100.45,371.38l-1.69.15M115.15,364.03l-1.69.15M107.8,364.03l-1.69.15M115.15,356.68l-1.69.15M107.8,356.68l-1.69.15M115.15,349.32l-1.69.15M107.8,349.32l-1.69.15M98.63,378.69l-.64-.69M98.81,371.53l-.56-.61M106.16,371.53l-.81-.88M106.16,364.17l-.81-.88M113.51,371.53l-.81-.88M106.16,356.82l-.81-.88M113.51,364.17l-.81-.88M106.16,349.47l-.09-.09M113.51,356.82l-.81-.88M113.51,349.47l-.81-.88M118,351.31l-.02.37M110.65,373.36l-.05,1.09M110.65,366.01l-.07,1.54M110.65,358.66l-.07,1.54M110.65,351.31l-.07,1.54M103.29,373.36l-.07,1.54M103.29,366.01l-.07,1.54M103.29,358.66l-.07,1.54M95.94,380.71l-.02.5M118.19,346.13l.32.77M111.1,346.76l.06.14M110.57,352.85l.59,1.4M110.57,360.2l.59,1.4M110.57,367.56l.59,1.4M103.22,360.2l.59,1.4M103.22,367.56l.59,1.4M103.22,374.91l.4.95M96.37,376.09l.09.21M118.51,346.91h.17M111.16,346.91l1.54.07M111.16,354.26l1.54.07M104.29,354.28l1.06.05M111.16,361.61l1.54.07M103.81,361.61l1.54.07M111.16,368.96l1.54.07M103.81,368.96l1.54.07M96.46,376.31l1.54.07M112.7,346.97l.52-.4M105.35,354.32l1.62-1.25M112.7,354.32l1.62-1.25M105.35,361.67l1.62-1.25M99.3,368.02l.32-.24M112.7,361.67l1.62-1.25M105.35,369.03l1.62-1.25M98,376.38l1.62-1.25M112.7,369.03l1.62-1.25M99.62,367.78l.59-1.84M99.62,375.13l.59-1.84M106.97,353.07l.59-1.84M106.97,360.43l.59-1.84M106.97,367.78l.59-1.84M107.06,374.84l.5-1.55M114.32,353.07l.59-1.84M114.32,360.43l.59-1.84M114.32,367.78l.59-1.84M114.45,374.74l.46-1.45M100.2,373.29l-.81-1.32M100.2,365.94l-.09-.15M107.55,373.29l-.81-1.32M107.55,365.94l-.81-1.32M114.9,373.29l-.81-1.32M107.55,358.59l-.81-1.32M114.9,365.94l-.81-1.32M107.55,351.24l-.81-1.32M114.9,358.59l-.81-1.32M114.9,351.24l-.81-1.32M97.99,379.21l-.36-.03M99.39,371.97l-1.48-.12M106.74,371.97l-1.76-.15M114.1,371.97l-1.76-.15M106.74,364.62l-1.76-.15M114.1,364.62l-1.76-.15M106.74,357.27l-1.76-.15M114.1,357.27l-1.76-.15M106.74,349.92l-.84-.07M114.1,349.92l-1.76-.15M112.36,371.84l-1.69,1.54M97.65,379.19l-1.69,1.54M105,371.84l-1.69,1.54M112.36,364.49l-1.69,1.54M105,364.49l-1.69,1.54M112.36,357.14l-1.69,1.54M118.03,351.32h-.01M105,357.14l-1.69,1.54M112.36,349.79l-1.69,1.54M95.87,380.78l-.59-.51M103.22,373.43l-.59-.51M110.58,373.43l-.59-.51M103.22,366.08l-.59-.51M110.58,366.08l-.59-.51M103.22,358.73l-.42-.37M110.58,358.73l-.59-.51M110.58,351.38l-.59-.51M117.93,351.38l-.59-.51M95.28,380.28l-.41-.06M102.63,372.92l-1.47-.22M109.98,372.92l-1.47-.22M116.68,372.83l-.82-.12M102.63,365.57l-1.47-.22M109.98,365.57l-1.47-.22M116.79,365.49l-.93-.14M109.98,358.22l-1.47-.22M117.26,358.21l-1.4-.21M109.98,350.87l-1.47-.22M117.33,350.87l-1.47-.22M115.86,372.7l-.74.74M115.86,365.35l-.74.74M108.51,372.7l-.74.74M115.86,358l-.74.74M108.51,365.35l-.74.74M101.16,372.7l-.74.74M115.86,350.65l-.74.74M108.51,358l-.74.74M101.16,365.35l-.74.74M108.51,350.65l-.74.74M115.35,371.82l-.51.22M108,371.82l-.51.22M100.65,371.82l-.51.22M115.35,364.47l-.51.22M108,364.47l-.51.22M100.65,364.47l-.07.03M115.35,357.12l-.51.22M108,357.12l-.51.22M115.35,349.76l-.51.22M108,349.76l-.51.22M114.83,349.99l.29.74M114.83,357.34l.29.74M114.83,364.69l.29.74M107.48,349.99l.29.74M114.83,372.04l.29.74M107.48,357.34l.29.74M107.48,364.69l.29.74M107.48,372.04l.29.74M100.33,365.19l.1.24M100.13,372.04l.29.74M107.78,350.72l1.1-.66M115.13,350.72l1.1-.66M107.78,358.07l1.1-.66M100.43,365.42l1.1-.66M115.13,358.07l1.1-.66M107.78,365.42l1.1-.66M100.43,372.78l1.1-.66M115.13,365.42l1.1-.66M107.78,372.78l1.1-.66M115.13,372.78l1.1-.66M101.53,372.11l-.88-.29M108.88,372.11l-.88-.29M116.23,372.11l-.88-.29M101.53,364.76l-.88-.29M108.88,364.76l-.88-.29M116.23,364.76l-.88-.29M108.88,357.41l-.88-.29M116.23,357.41l-.88-.29M108.88,350.06l-.88-.29M116.23,350.06l-.88-.29M110.57,349.99l1.25-.37M117.92,349.99l.3-.09M103.22,357.34l1.25-.37M110.57,357.34l1.25-.37M103.22,364.69l1.25-.37M110.57,364.69l1.25-.37M103.22,372.04l1.25-.37M110.57,372.04l1.25-.37M95.87,379.39l1.25-.37M104.47,356.97l.37-1.03M97.12,379.02l.37-1.03M104.47,364.32l.37-1.03M111.82,349.62l.37-1.03M104.47,371.67l.37-1.03M111.82,356.97l.37-1.03M111.82,364.32l.37-1.03M111.82,371.67l.37-1.03M116.23,348.59l.44,1.03M116.23,355.94l.44,1.03M116.23,363.29l.44,1.03M108.88,348.59l.44,1.03M116.23,370.64l.44,1.03M108.88,355.94l.44,1.03M108.88,363.29l.44,1.03M108.88,370.64l.44,1.03M101.53,363.29l.44,1.03M101.53,370.64l.44,1.03M116.67,349.62l1.25.37M109.32,349.62l1.25.37M116.67,356.97l.68.2M109.32,356.97l1.25.37M103.18,357.33h.04M116.67,364.32l.17.05M109.32,364.32l1.25.37M101.97,364.32l1.25.37M116.67,371.67h0M109.32,371.67l1.25.37M101.97,371.67l1.25.37M95.24,379.2l.63.19M117.92,347.2l.68.25M110.57,347.2l1.18.44M110.57,354.55l1.18.44M104.08,354.87l.32.12M110.57,361.9l1.18.44M103.22,361.9l1.18.44M110.57,369.25l1.18.44M103.22,369.25l1.18.44M96.15,376.71l.9.34M111.74,347.63l.44.96M111.74,354.98l.44.96M111.74,362.34l.44.96M111.74,369.69l.44.96M104.39,354.98l.44.96M104.39,362.34l.44.96M104.39,369.69l.44.96M97.04,377.04l.44.96M101.6,363.29l.44-1.03M108.95,348.59l.44-1.03M101.6,370.64l.44-1.03M108.95,355.94l.44-1.03M108.95,363.29l.44-1.03M116.3,348.59l.44-1.03M108.95,370.64l.44-1.03M116.3,355.94l.44-1.03M116.3,363.29l.44-1.03M116.3,370.64l.38-.89M109.4,347.56l1.18-.37M116.75,347.56l1.18-.37M109.4,354.91l1.18-.37M116.75,354.91l.87-.27M102.04,362.26l1.18-.37M109.4,362.26l1.18-.37M116.75,362.26l.22-.07M102.04,369.61l1.18-.37M109.4,369.61l1.18-.37M105.35,355.94l.22-.59M98,377.99l.22-.59M105.35,363.29l.22-.59M112.7,348.59l.22-.59M105.35,370.64l.22-.59M112.7,355.94l.22-.59M112.7,363.29l.22-.59M112.7,370.64l.22-.59M101.16,370.64l-.07-.37M101.16,363.29l-.05-.26M108.51,370.64l-.07-.37M108.51,363.29l-.07-.37M108.51,355.94l-.07-.37M108.51,348.59l-.07-.37M115.86,370.64l-.07-.37M115.86,363.29l-.07-.37M115.86,355.94l-.07-.37M115.86,348.59l-.07-.37M93.32,384.87l-.13-.03M100.41,377.46l-.79-.2M101.09,370.28l-1.47-.37M108.44,370.28l-1.47-.37M115.79,370.28l-1.47-.37M108.44,362.93l-1.47-.37M115.79,362.93l-1.47-.37M108.44,355.57l-1.47-.37M115.79,355.57l-1.47-.37M108.44,348.22l-1.47-.37M115.79,348.22l-1.47-.37M99.62,377.28l-1.4.15M114.32,369.93l-1.4.15M106.97,369.93l-1.4.15M99.62,369.93l-1.05.11M114.32,362.57l-1.4.15M106.97,362.57l-1.4.15M114.32,355.22l-1.4.15M106.97,355.22l-1.4.15M114.32,347.87l-1.4.15M106.97,347.87l-.37.04M115.13,351.38l.59.88M115.13,358.73l.59.88M107.78,351.38l.59.88M115.13,366.09l.59.88M107.78,358.73l.59.88M115.13,373.44l.59.88M107.78,366.09l.59.88M107.78,373.44l.59.88M100.43,366.09l.59.88M100.43,373.44l.59.88M115.72,352.24l1.84.22M108.37,352.24l1.84.22M115.72,359.59l1.41.17M108.37,359.59l1.84.22M102.31,359.74l.55.07M115.72,366.94l1.02.12M108.37,366.94l1.84.22M101.02,366.94l1.84.22M115.72,374.29l.98.12M108.37,374.29l1.57.19M101.02,374.29l1.84.22M94.33,381.72l1.05.13M102.85,359.84l.37-.66M110.2,352.49l.37-.66M102.85,367.19l.37-.66M95.8,381.35l.07-.12M110.2,359.84l.37-.66M102.85,374.54l.37-.66M117.56,352.49l.37-.66M110.2,367.19l.37-.66M110.25,374.46l.33-.59M95.87,381.23v-.44M103.22,373.88v-.44M103.22,366.53v-.44M103.22,359.18v-.44M110.57,373.88v-.44M110.57,366.53v-.44M110.57,359.18v-.44M110.57,351.83v-.44M117.92,351.83v-.44M99.48,377.04l-.51-.88M99.48,369.68l-.48-.83M106.83,369.68l-.51-.88M106.83,362.33l-.51-.88M114.18,369.68l-.51-.88M106.83,354.98l-.51-.88M114.18,362.33l-.51-.88M106.83,347.63l-.08-.13M114.18,354.98l-.51-.88M114.18,347.63l-.51-.88M106.31,354.1l1.32-1.47M113.66,346.75l.22-.24M99.05,368.7l1.23-1.36M106.31,361.46l1.32-1.47M113.66,354.1l1.32-1.47M98.96,376.16l1.32-1.47M106.31,368.81l1.32-1.47M113.66,361.46l1.32-1.47M107.58,374.75l.05-.06M113.66,368.81l1.32-1.47M114.87,374.81l.11-.13M107.63,352.63h1.91M114.98,352.63h1.91M107.63,359.98h1.91M114.98,359.98h1.91M100.28,367.34h1.91M107.63,367.34h1.91M114.98,367.34h1.75M100.28,374.69h1.91M107.63,374.69h.32M114.98,374.69h1.72M94.21,382.04h.63M116.89,352.63l.89.62M109.54,352.63l.96.66M116.89,359.98l.21.15M109.54,359.98l.96.66M102.22,360l.93.64M109.54,367.33l.96.66M102.19,367.33l.96.66M102.19,374.68l.96.66M94.84,382.03l.25.17M117.72,353.74l-.17.58M117.78,346.17l-.23.81M110.5,368l-.29,1.03M110.5,360.65l-.29,1.03M110.5,353.3l-.29,1.03M103.15,375.35l-.23.8M110.24,346.83l-.04.14M103.15,368l-.29,1.03M103.15,360.65l-.29,1.03M116.69,369.5l-.67.35M110.21,369.04l-1.54.81M116.97,362l-.95.5M102.86,369.04l-1.54.81M110.21,361.69l-1.54.81M117.56,354.34l-1.54.81M102.86,361.69l-1.54.81M110.21,354.34l-1.54.81M117.56,346.99l-1.54.81M110.21,346.99l-1.54.81M93.53,384.5l-.21-.02M100.93,377.15l-1.46-.12M101.31,369.83l-1.84-.15M108.66,369.83l-1.84-.15M116.01,369.83l-1.84-.15M108.66,362.48l-1.84-.15M116.01,362.48l-1.84-.15M108.66,355.13l-1.84-.15M116.01,355.13l-1.84-.15M108.66,347.78l-1.84-.15M116.01,347.78l-1.84-.15"/>
    </g>
    <g id="LWPOLYLINE-7" data-name="LWPOLYLINE">
      <polygon class="cls-5" points="362.89 360.12 353.49 325.49 345.11 327.77 344.66 326.09 320.04 332.78 323.38 344.91 321.14 345.52 324.86 359.2 327.09 358.6 330.39 370.75 354.97 364.07 354.52 362.4 362.89 360.12"/>
    </g>
    <g id="LWPOLYLINE-8" data-name="LWPOLYLINE">
      <polygon class="cls-5" points="351.73 313.37 348.14 277.66 339.5 278.53 339.33 276.8 313.94 279.35 315.25 291.87 312.94 292.1 314.36 306.21 316.66 305.98 317.92 318.51 343.26 315.96 343.09 314.24 351.73 313.37"/>
    </g>
    <g id="LWPOLYLINE-9" data-name="LWPOLYLINE">
      <polygon class="cls-5" points="380.02 406.27 369.22 372.05 360.94 374.66 360.42 373 336.09 380.68 339.92 392.67 337.71 393.37 341.98 406.89 344.18 406.19 347.97 418.2 372.26 410.54 371.74 408.88 380.02 406.27"/>
    </g>
    <g id="LWPOLYLINE-10" data-name="LWPOLYLINE">
      <polygon class="cls-5" points="350.75 263.78 350.75 227.9 342.07 227.9 342.07 226.16 316.56 226.16 316.61 238.75 314.29 238.75 314.29 252.93 316.61 252.93 316.61 265.52 342.07 265.52 342.07 263.78 350.75 263.78"/>
    </g>
    <g id="LWPOLYLINE-11" data-name="LWPOLYLINE">
      <polygon class="cls-5" points="407.12 451.34 393.94 417.96 385.86 421.15 385.22 419.53 361.49 428.9 366.16 440.59 364.01 441.44 369.22 454.63 371.37 453.78 375.99 465.49 399.68 456.14 399.04 454.53 407.12 451.34"/>
    </g>
    <g id="LWPOLYLINE-12" data-name="LWPOLYLINE">
      <polygon class="cls-5" points="353.08 213.5 354.55 177.64 345.88 177.29 345.95 175.55 320.46 174.5 319.99 187.08 317.67 186.99 317.09 201.16 319.4 201.25 318.89 213.83 344.33 214.88 344.4 213.14 353.08 213.5"/>
    </g>
    <g id="LWPOLYLINE-13" data-name="LWPOLYLINE">
      <polygon class="cls-5" points="434.77 496.57 421.59 463.2 413.51 466.38 412.88 464.77 389.15 474.14 393.81 485.83 391.66 486.68 396.87 499.87 399.02 499.02 403.64 510.73 427.33 501.38 426.69 499.76 434.77 496.57"/>
    </g>
    <g id="LWPOLYLINE-14" data-name="LWPOLYLINE">
      <polygon class="cls-5" points="326.27 521.55 313.09 488.17 305.02 491.36 304.38 489.74 280.65 499.11 285.32 510.8 283.16 511.66 288.37 524.85 290.52 523.99 295.15 535.7 318.84 526.35 318.2 524.74 326.27 521.55"/>
    </g>
    <g id="LWPOLYLINE-15" data-name="LWPOLYLINE">
      <polygon class="cls-5" points="298.79 476.59 289 442.06 280.64 444.43 280.17 442.76 255.63 449.73 259.11 461.83 256.88 462.46 260.75 476.1 262.98 475.47 266.41 487.58 290.91 480.63 290.44 478.96 298.79 476.59"/>
    </g>
    <g id="LWPOLYLINE-16" data-name="LWPOLYLINE">
      <polygon class="cls-5" points="273.95 430.46 264.16 395.94 255.81 398.31 255.33 396.64 230.79 403.6 234.27 415.7 232.04 416.33 235.91 429.97 238.14 429.34 241.58 441.45 266.08 434.5 265.6 432.83 273.95 430.46"/>
    </g>
    <g id="LWPOLYLINE-17" data-name="LWPOLYLINE">
      <polygon class="cls-5" points="255.28 382.62 250.48 347.06 241.87 348.22 241.64 346.5 216.35 349.92 218.09 362.39 215.79 362.7 217.69 376.75 219.99 376.44 221.67 388.92 246.91 385.51 246.68 383.78 255.28 382.62"/>
    </g>
    <g id="LWPOLYLINE-18" data-name="LWPOLYLINE">
      <polygon class="cls-5" points="243.15 331.05 245.36 295.23 236.69 294.7 236.8 292.97 211.33 291.4 210.6 303.97 208.29 303.82 207.42 317.98 209.73 318.12 208.96 330.69 234.38 332.25 234.48 330.52 243.15 331.05"/>
    </g>
    <g id="LWPOLYLINE-19" data-name="LWPOLYLINE">
      <polygon class="cls-5" points="240.81 272.79 246.63 237.38 238.06 235.97 238.34 234.25 213.17 230.12 211.17 242.55 208.89 242.17 206.58 256.16 208.87 256.54 206.83 268.96 231.96 273.09 232.24 271.38 240.81 272.79"/>
    </g>
    <g id="LWPOLYLINE-20" data-name="LWPOLYLINE">
      <polygon class="cls-5" points="232.89 212.32 246.87 179.27 238.87 175.89 239.55 174.29 216.05 164.35 211.19 175.96 209.06 175.06 203.53 188.12 205.67 189.02 200.76 200.62 224.22 210.54 224.89 208.94 232.89 212.32"/>
    </g>
    <g id="LWPOLYLINE-21" data-name="LWPOLYLINE">
      <polygon class="cls-5" points="176.18 330.15 176.18 294.27 167.5 294.27 167.5 292.53 141.99 292.53 142.03 305.12 139.72 305.12 139.72 319.3 142.03 319.3 142.03 331.89 167.5 331.89 167.5 330.15 176.18 330.15"/>
    </g>
    <g id="LWPOLYLINE-22" data-name="LWPOLYLINE">
      <polygon class="cls-5" points="182.41 389.32 181.4 353.45 172.72 353.69 172.67 351.96 147.17 352.68 147.57 365.26 145.25 365.32 145.65 379.5 147.97 379.43 148.32 392.02 173.78 391.3 173.73 389.56 182.41 389.32"/>
    </g>
    <g id="LWPOLYLINE-23" data-name="LWPOLYLINE">
      <polygon class="cls-5" points="194.72 440.85 190.48 405.21 181.86 406.24 181.66 404.51 156.32 407.52 157.85 420.02 155.55 420.29 157.23 434.37 159.53 434.1 161.01 446.6 186.3 443.6 186.1 441.87 194.72 440.85"/>
    </g>
    <g id="LWPOLYLINE-24" data-name="LWPOLYLINE">
      <polygon class="cls-5" points="218.78 489.73 213.14 454.29 204.57 455.66 204.29 453.94 179.1 457.95 181.12 470.38 178.84 470.74 181.07 484.75 183.35 484.38 185.33 496.81 210.48 492.81 210.21 491.1 218.78 489.73"/>
    </g>
    <g id="LWPOLYLINE-25" data-name="LWPOLYLINE">
      <polygon class="cls-5" points="244.82 539.44 237.38 504.33 228.89 506.13 228.53 504.44 203.57 509.73 206.23 522.03 203.96 522.51 206.9 536.38 209.17 535.9 211.78 548.22 236.69 542.94 236.33 541.24 244.82 539.44"/>
    </g>
    <g id="LWPOLYLINE-26" data-name="LWPOLYLINE">
      <polygon class="cls-5" points="113.45 516.69 100.09 483.38 92.03 486.61 91.39 485 67.71 494.5 72.44 506.17 70.29 507.03 75.57 520.19 77.72 519.33 82.4 531.01 106.04 521.53 105.39 519.92 113.45 516.69"/>
    </g>
    <g id="LWPOLYLINE-27" data-name="LWPOLYLINE">
      <polygon class="cls-5" points="134.95 563.08 120.19 530.37 112.28 533.94 111.57 532.36 88.31 542.85 93.53 554.31 91.42 555.26 97.25 568.18 99.36 567.23 104.54 578.71 127.75 568.23 127.04 566.65 134.95 563.08"/>
    </g>
    <g id="LWPOLYLINE-28" data-name="LWPOLYLINE">
      <polygon class="cls-5" points="159.42 607.33 140.66 576.74 133.26 581.28 132.35 579.8 110.6 593.14 117.23 603.85 115.25 605.06 122.67 617.15 124.64 615.94 131.22 626.67 152.93 613.35 152.02 611.87 159.42 607.33"/>
    </g>
    <g id="LWPOLYLINE-29" data-name="LWPOLYLINE">
      <polygon class="cls-5" points="185.39 656.34 166.27 625.97 158.92 630.6 157.99 629.13 136.4 642.72 143.15 653.35 141.19 654.58 148.75 666.58 150.71 665.35 157.41 676 178.97 662.43 178.04 660.96 185.39 656.34"/>
    </g>
    <g id="LWPOLYLINE-30" data-name="LWPOLYLINE">
      <polygon class="cls-5" points="212.22 703.73 189.7 675.78 182.94 681.23 181.85 679.88 161.99 695.89 169.92 705.66 168.12 707.11 177.02 718.16 178.82 716.7 186.72 726.51 206.55 710.53 205.46 709.17 212.22 703.73"/>
    </g>
    <g id="LWPOLYLINE-31" data-name="LWPOLYLINE">
      <polygon class="cls-5" points="481.96 219.15 481.96 183.26 473.28 183.26 473.28 181.53 447.76 181.53 447.81 194.11 445.49 194.11 445.49 208.3 447.81 208.3 447.81 220.88 473.28 220.88 473.28 219.15 481.96 219.15"/>
    </g>
    <g id="LWPOLYLINE-32" data-name="LWPOLYLINE">
      <polygon class="cls-5" points="477.06 270.5 474.51 234.71 465.85 235.32 465.73 233.59 440.28 235.4 441.22 247.96 438.91 248.12 439.91 262.27 442.22 262.1 443.12 274.66 468.52 272.85 468.4 271.12 477.06 270.5"/>
    </g>
    <g id="LWPOLYLINE-33" data-name="LWPOLYLINE">
      <polygon class="cls-5" points="481.6 320.76 474.2 285.65 465.7 287.44 465.35 285.74 440.38 291 443.02 303.31 440.76 303.79 443.68 317.66 445.95 317.18 448.54 329.5 473.46 324.25 473.1 322.55 481.6 320.76"/>
    </g>
    <g id="LWPOLYLINE-34" data-name="LWPOLYLINE">
      <polygon class="cls-5" points="505.23 366.01 492.67 332.4 484.54 335.43 483.93 333.81 460.03 342.73 464.48 354.51 462.31 355.32 467.27 368.61 469.44 367.8 473.84 379.59 497.7 370.68 497.09 369.05 505.23 366.01"/>
    </g>
    <g id="LWPOLYLINE-35" data-name="LWPOLYLINE">
      <polygon class="cls-5" points="532.71 409.37 519.42 376.03 511.35 379.25 510.71 377.64 487.01 387.09 491.72 398.76 489.57 399.62 494.82 412.79 496.97 411.94 501.63 423.63 525.29 414.2 524.65 412.58 532.71 409.37"/>
    </g>
    <g id="LWPOLYLINE-36" data-name="LWPOLYLINE">
      <polygon class="cls-5" points="555.28 198.87 560.34 163.34 551.74 162.12 551.99 160.4 526.73 156.8 525 169.27 522.71 168.95 520.71 182.99 523 183.31 521.23 195.78 546.44 199.36 546.69 197.64 555.28 198.87"/>
    </g>
    <g id="LWPOLYLINE-37" data-name="LWPOLYLINE">
      <polygon class="cls-5" points="559.9 248.79 561.98 212.97 553.31 212.47 553.41 210.73 527.94 209.26 527.26 221.83 524.95 221.69 524.13 235.85 526.44 235.98 525.71 248.55 551.13 250.02 551.23 248.29 559.9 248.79"/>
    </g>
    <g id="LWPOLYLINE-38" data-name="LWPOLYLINE">
      <polygon class="cls-5" points="570.32 297.52 566.72 261.81 558.08 262.69 557.91 260.96 532.53 263.52 533.83 276.04 531.53 276.27 532.95 290.38 535.26 290.15 536.52 302.67 561.86 300.12 561.69 298.39 570.32 297.52"/>
    </g>
    <g id="LWPOLYLINE-39" data-name="LWPOLYLINE">
      <polygon class="cls-5" points="589 341.63 577.66 307.58 569.43 310.32 568.88 308.67 544.67 316.73 548.69 328.66 546.49 329.39 550.97 342.85 553.17 342.12 557.14 354.06 581.31 346.02 580.76 344.37 589 341.63"/>
    </g>
    <g id="LWPOLYLINE-40" data-name="LWPOLYLINE">
      <polygon class="cls-5" points="670.66 181.27 670.65 145.39 661.97 145.39 661.97 143.65 636.46 143.65 636.51 156.24 634.19 156.24 634.19 170.42 636.51 170.42 636.51 183.01 661.98 183.01 661.98 181.27 670.66 181.27"/>
    </g>
    <g id="LWPOLYLINE-41" data-name="LWPOLYLINE">
      <polygon class="cls-5" points="666.5 231.7 666.5 195.82 657.82 195.82 657.82 194.08 632.31 194.08 632.35 206.67 630.04 206.67 630.04 220.85 632.35 220.85 632.35 233.44 657.82 233.44 657.82 231.7 666.5 231.7"/>
    </g>
    <g id="LWPOLYLINE-42" data-name="LWPOLYLINE">
      <polygon class="cls-5" points="672.03 281.79 672.03 245.91 663.34 245.91 663.34 244.17 637.83 244.17 637.88 256.76 635.56 256.76 635.56 270.94 637.88 270.94 637.88 283.53 663.34 283.53 663.34 281.79 672.03 281.79"/>
    </g>
    <g id="LWPOLYLINE-43" data-name="LWPOLYLINE">
      <polygon class="cls-5" points="246.65 743.44 219.42 720.07 213.77 726.66 212.45 725.53 195.83 744.89 205.41 753.05 203.91 754.81 214.67 764.05 216.17 762.29 225.73 770.49 242.31 751.16 241 750.03 246.65 743.44"/>
    </g>
  </g>
</svg>