<svg xmlns="http://www.w3.org/2000/svg" width="auto" height="100%" fill="currentColor" viewBox="0 0 192 70">
  <path d="M41.401 67.342c-1.474 0-2.22.155-2.54.428a.561.561 0 0 0-.164.381c0 .11.036.21.12.302.244.28.9.437 2.002.437.865 0 1.565-.083 2.038-.201.356-.1.847-.31.984-.591.082-.064.21-.437.21-.628a31.188 31.188 0 0 0-2.65-.128Zm2.731 2.303s-.1-.474-.09-.655c-.355.39-1.43.764-3.369.764-2.066 0-3.177-.464-3.177-1.484v-.127c0-1.038 1.075-1.593 3.96-1.593.719 0 1.867.064 2.595.127 0-.236-.036-.51-.192-.71-.282-.328-.983-.565-2.384-.565-1.348 0-2.04.201-2.33.51a.64.64 0 0 0-.148.32h-1.146c.018-.138.09-.311.137-.411.364-.856 1.456-1.338 3.468-1.338 2.276 0 3.35.546 3.577 1.684.047.228.074.647.064.966 0 .173-.009.909-.009 1.3 0 .502.073 1.03.155 1.212h-1.11Zm5.098-3.969v2.085c0 .82.382 1.02 1.21 1.02.338 0 1.092-.056 1.339-.109v.919c-.283.083-.992.164-1.676.164-1.256 0-2.03-.39-2.03-1.748v-2.33h-1.566v-.974h1.567c.026-.32.035-1.321.035-1.321l1.102-.027v1.348h2.632v.973h-2.614Zm16.358-1.584c-.228-.3-.628-.464-1.239-.464h-4.707v1.948h4.744c.683 0 1.047-.145 1.228-.428.1-.173.138-.356.138-.528 0-.2-.046-.373-.164-.528Zm1.092 1.556c-.255.41-.756.792-1.475.865l2.64 3.132h-1.43l-2.485-2.977h-4.288v2.977h-1.21v-7.109h5.772c1.22 0 1.993.336 2.394.837.228.3.346.664.346 1.157 0 .436-.082.828-.264 1.118Zm6.608-.272c-1.912 0-2.958.601-3.058 1.338h6.09c0-.609-.984-1.338-3.032-1.338Zm.046 4.388c-2.786 0-4.251-.992-4.251-2.695 0-1.684 1.73-2.595 4.224-2.595 2.503 0 4.188.892 4.188 3.042H70.23c.136.801 1.22 1.374 3.168 1.374 1.684 0 2.421-.373 2.74-.792h1.274c-.3.764-1.401 1.666-4.078 1.666Zm9.385-2.422c-1.475 0-2.221.155-2.54.428a.561.561 0 0 0-.164.381c0 .11.036.21.118.302.246.28.902.437 2.003.437.865 0 1.566-.083 2.039-.201.356-.1.847-.31.984-.591.081-.064.21-.437.21-.628a31.185 31.185 0 0 0-2.65-.128Zm2.73 2.303s-.1-.474-.09-.655c-.355.39-1.43.764-3.368.764-2.067 0-3.177-.464-3.177-1.484v-.127c0-1.038 1.074-1.593 3.96-1.593.718 0 1.866.064 2.594.127 0-.236-.037-.51-.192-.71-.281-.328-.983-.565-2.384-.565-1.348 0-2.04.201-2.33.51a.64.64 0 0 0-.147.32h-1.147c.019-.138.09-.311.137-.411.364-.856 1.456-1.338 3.468-1.338 2.276 0 3.351.546 3.578 1.684.046.228.073.647.064.966 0 .173-.01.909-.01 1.3 0 .502.074 1.03.155 1.212h-1.11Zm3.651 0c-.055-.018-.082-.173-.082-.437V63.1c0-.337-.019-.575-.037-.675h1.138c.036.147.036.357.036.647v6c0 .264.01.537.09.573H89.1Zm9.048-3.367a1.38 1.38 0 0 0-.291.865c0 .336.108.645.3.882.455.547 1.33.774 2.74.774 1.484 0 2.349-.29 2.723-.883.145-.228.218-.483.218-.773 0-.347-.092-.639-.31-.884-.446-.519-1.366-.783-2.714-.783-1.346 0-2.266.283-2.666.802Zm5.672-.72V62.49h1.12v6.602c0 .217.045.555.045.555h-1.111l-.028-1.02c-.454.755-1.765 1.129-3.241 1.129-1.765 0-2.921-.438-3.477-1.247a2.357 2.357 0 0 1-.419-1.365c0-.528.145-.993.41-1.375.527-.82 1.638-1.285 3.405-1.285 1.538 0 2.776.31 3.296 1.076Zm7.336-.182c-1.912 0-2.959.601-3.059 1.338h6.091c0-.609-.984-1.338-3.032-1.338Zm.045 4.388c-2.785 0-4.251-.992-4.251-2.695 0-1.684 1.73-2.595 4.224-2.595 2.503 0 4.188.892 4.188 3.042h-7.265c.136.801 1.22 1.374 3.168 1.374 1.684 0 2.421-.373 2.74-.792h1.275c-.3.764-1.402 1.666-4.079 1.666Zm6.171-.119c-.055-.018-.082-.173-.082-.437V63.1a4.44 4.44 0 0 0-.037-.675h1.139c.036.147.036.357.036.647v6c0 .264.009.537.09.573h-1.146Zm17.852 0v-5.462l-3.515 5.462h-1.264l-3.433-5.462v5.462h-1.183v-7.109h1.547l3.724 5.935 3.769-5.935h1.529v7.11h-1.174Zm7.408-2.303c-1.475 0-2.221.155-2.54.428a.561.561 0 0 0-.164.381c0 .11.036.21.119.302.245.28.901.437 2.002.437.866 0 1.566-.083 2.039-.201.356-.1.847-.31.984-.591.081-.064.209-.437.209-.628a31.178 31.178 0 0 0-2.649-.128Zm2.731 2.303s-.1-.474-.091-.655c-.355.39-1.429.764-3.368.764-2.067 0-3.177-.464-3.177-1.484v-.127c0-1.038 1.074-1.593 3.96-1.593.718 0 1.866.064 2.594.127 0-.236-.036-.51-.192-.71-.281-.328-.982-.565-2.384-.565-1.348 0-2.04.201-2.33.51a.638.638 0 0 0-.147.32h-1.147c.019-.138.091-.311.138-.411.364-.856 1.456-1.338 3.468-1.338 2.276 0 3.35.546 3.577 1.684.047.228.073.647.064.966 0 .173-.009.909-.009 1.3 0 .502.073 1.03.154 1.212h-1.11Zm8.83-3.86a8.78 8.78 0 0 0-1.648-.154c-1.311 0-2.559.737-2.559 2.15v1.864h-1.137V64.64h1.101v1.384c.264-.773 1.293-1.394 2.576-1.457a7.342 7.342 0 0 1 1.667.073v1.147ZM37.505 17.354a28.318 28.318 0 0 0-1.056-10.228c-.99-3.432-3.3-5.808-6.665-6.27-3.299-.395-6.467.594-9.568 2.903-3.102 2.311-5.676 5.478-7.722 9.371-3.101 5.808-4.421 12.935-2.64 19.204.924 3.101 2.64 5.345 5.148 6.665 4.422 1.914 9.503 1.848 14.452-.858 2.442-1.386 4.422-3.167 5.874-5.411-2.443 4.883-5.544 8.645-9.371 11.284-3.761 2.575-8.25 3.432-13.33 2.575-4.29-.727-7.523-2.772-9.702-6.204C.748 36.887-.176 32.927.022 28.44c.198-4.488 1.452-8.778 3.63-12.803C9.59 4.75 18.565-.398 30.642.262c5.214.33 9.371 2.244 12.406 5.808l-5.543 11.284Zm30.947 25.802c1.385-.99 2.573-1.98 3.564-3.036l1.517-1.584c-.197.199-.66.792-1.385 1.783-1.519 1.848-1.848 2.31-3.432 3.893-2.177 2.112-4.025 3.036-6.93 3.3-4.949 0-4.949-4.159-3.629-7.325l4.752-11.879c2.97-7.59 3.299-11.68.99-12.142-1.518-.396-3.432.395-5.61 2.44-2.177 2.047-4.224 4.62-6.07 7.789-2.18 3.63-3.433 6.928-3.894 9.899-.463 2.969.13 4.882 1.65 5.674 1.517.66 2.969.528 4.486-.33 1.519-.858 2.772-1.98 3.696-3.3 0 .066-.66 1.386-.99 1.98-.33.529-1.055 1.98-1.782 2.773-2.045 2.242-4.486 4.75-8.776 4.486-6.864.067-8.052-10.491-2.244-19.335 3.168-5.015 7.194-8.777 10.624-10.36 3.498-1.65 6.072-2.245 8.184-2.178 2.573.066 4.487.99 5.74 2.706l2.112-.66 4.421-1.584-9.766 24.878c-.858 2.047-.924 3.168-.264 3.3.727.197 1.716-.199 3.036-1.188Zm41.175-.527c1.253-.924 2.441-1.848 3.432-2.838l1.452-1.452-.924 1.122-1.056 1.254c-.331.33-1.783 1.979-2.376 2.507-.594.463-1.848 1.584-2.706 2.047-1.32.725-3.036 1.452-4.62 1.452-3.233 0-4.685-2.311-3.101-7.062l4.025-9.965c2.112-5.345 2.64-7.588 1.386-9.239-.791-.725-2.111-.989-4.026-.461-1.846.528-4.618 2.64-7.456 6.07 5.279-7.985 10.36-11.415 15.244-10.294 4.422.859 5.742 4.62 3.035 12.275l-4.619 11.416c-.99 2.772-1.188 4.224-.462 4.356.594.132 1.518-.264 2.772-1.188ZM85.012 46.72h-7.457l8.71-22.57c.924-2.177 1.188-3.3.727-3.432-.463-.197-1.32 0-2.508.727-1.121.725-2.177 1.45-3.101 2.31l-1.387 1.253c4.687-5.478 8.448-8.315 11.219-8.644 3.96-.463 4.884 2.573 3.102 6.466l-9.305 23.89Zm61.565-3.432c1.253-.857 2.441-1.781 3.497-2.837l1.65-1.584-2.243 2.772c-.463.528-1.255 1.32-2.376 2.441-2.177 2.177-4.356 3.101-6.731 3.101-2.838 0-4.289-3.233-2.772-7.258l5.082-12.407c2.64-6.995 2.705-10.756.264-11.219-1.65-.396-3.498.331-5.676 2.244-2.178 1.848-4.091 4.356-5.872 7.458-2.047 3.629-3.367 7.126-3.895 10.36-.528 3.233-.065 5.213 1.452 5.873 1.519.66 3.168.528 4.817-.461 1.651-.991 2.97-2.244 3.894-3.696-2.838 6.533-6.731 9.766-11.68 9.701-6.995.33-8.382-10.757-2.376-19.665 3.365-5.28 7.193-8.976 10.625-10.559 3.431-1.584 6.005-2.047 8.447-1.848 1.781.132 3.168.725 4.09 1.848l4.555-11.021c.857-2.244 1.187-3.63.923-4.223-.462-.99-3.431-1.584-5.74-1.65l-1.651-.066h15.971l-16.168 40.519c-.595 1.385-.727 2.309-.463 2.638.331.463 1.123.331 2.376-.461ZM181.02 12.8l8.447-5.542c2.573-1.65 2.64-3.895 1.584-4.488-1.056-1.253-2.969-.792-4.553 1.65l-5.478 8.38Zm-.396 2.904c2.706.33 4.686 1.518 5.874 3.695 1.188 2.112.725 4.488-1.32 7.194-2.112 2.44-5.279 3.96-9.436 4.488l-4.356.396c-.858.065-2.112.065-3.762.065 5.082-.462 9.304-2.772 12.539-6.995 2.045-2.705 3.629-7.853 1.187-8.447-1.715-.33-3.827.528-6.335 2.706a27.201 27.201 0 0 0-6.269 7.853 24.404 24.404 0 0 0-2.244 6.268c-.462 2.244-.395 4.356.132 6.336.528 1.98 1.65 3.233 3.366 3.695 6.203 1.584 10.691-2.639 12.208-4.685l.594-.726c-.264.594-.462 1.32-2.31 3.894-.857 1.254-1.848 2.375-2.969 3.3-2.177 1.848-6.204 3.43-10.427 2.904-2.376-.265-4.289-1.387-5.808-3.433-2.969-4.025-3.101-9.965 0-16.497 2.575-5.213 6.336-8.777 9.966-10.294 3.696-1.585 6.665-1.98 9.37-1.716Z"></path>
</svg>
