<?xml version="1.0" encoding="UTF-8"?>
<svg id="Layer_2" data-name="Layer 2" xmlns="http://www.w3.org/2000/svg" xmlns:xlink="http://www.w3.org/1999/xlink" viewBox="0 0 717.9 895.8">
  <defs>
    <style>
      .cls-1, .cls-2, .cls-3, .cls-4, .cls-5, .cls-6, .cls-7, .cls-8, .cls-9, .cls-10, .cls-11, .cls-12, .cls-13, .cls-14, .cls-15, .cls-16, .cls-17 {
        fill: none;
      }

      .cls-2 {
        stroke-dasharray: 0 5.36;
      }

      .cls-2, .cls-3, .cls-4, .cls-5, .cls-6, .cls-7, .cls-8, .cls-9, .cls-10, .cls-11, .cls-12, .cls-13, .cls-14, .cls-15, .cls-16, .cls-17 {
        stroke-width: 2px;
      }

      .cls-2, .cls-3, .cls-4, .cls-5, .cls-6, .cls-7, .cls-9, .cls-10, .cls-11, .cls-12, .cls-13, .cls-14, .cls-16, .cls-17 {
        stroke: #c79746;
        stroke-linecap: round;
        stroke-linejoin: round;
      }

      .cls-4 {
        stroke-dasharray: 0 5.07;
      }

      .cls-5 {
        stroke-dasharray: 0 5.22 0 5.22;
      }

      .cls-18 {
        fill: #c79746;
      }

      .cls-19 {
        fill: #231f20;
      }

      .cls-6 {
        stroke-dasharray: 0 4.92 0 4.92;
      }

      .cls-7 {
        stroke-dasharray: 0 5.17 0 5.17;
      }

      .cls-8 {
        stroke: #231f20;
      }

      .cls-8, .cls-15 {
        stroke-miterlimit: 10;
      }

      .cls-20 {
        font-family: Garet-Bold, Garet;
        font-size: 26.01px;
        font-weight: 700;
      }

      .cls-9 {
        stroke-dasharray: 0 5.07 0 5.07;
      }

      .cls-10 {
        stroke-dasharray: 0 4.91;
      }

      .cls-11 {
        stroke-dasharray: 0 5 0 5;
      }

      .cls-12 {
        stroke-dasharray: 0 5.22;
      }

      .cls-13 {
        stroke-dasharray: 0 4.92;
      }

      .cls-21 {
        letter-spacing: 0em;
      }

      .cls-22 {
        letter-spacing: -.03em;
      }

      .cls-23 {
        letter-spacing: -.03em;
      }

      .cls-24 {
        letter-spacing: 0em;
      }

      .cls-14 {
        stroke-dasharray: 0 5.36 0 5.36;
      }

      .cls-15 {
        stroke: #615e59;
      }

      .cls-25 {
        clip-path: url(#clippath);
      }

      .cls-16 {
        stroke-dasharray: 0 5.17;
      }

      .cls-17 {
        stroke-dasharray: 0 4.91 0 4.91;
      }
    </style>
    <clipPath id="clippath">
      <rect class="cls-1" width="717.9" height="895.8"/>
    </clipPath>
  </defs>
  <g id="Layer_1-2" data-name="Layer 1">
    <g class="cls-25">
      <polyline class="cls-11" points="140.43 129.52 144.89 123.9 156.78 113.11 169.04 110.75 185.35 109.45 197.24 109.45 224.02 113.31 231.53 111.57 231.28 107.03 230.54 104.31 229.71 98.44"/>
      <path class="cls-11" d="M109.66,381.39l-15.04-5.78-12.21-30.55-1.89-9.29,12.84-50.16,19.16-25.1,8.99-24.33,14.79-28.55,5.45-39.14-1.09-33.7s-7.41-12.4-9.39-12.73-21.72-4.43-21.72-4.43h-18.5l-6.72,9.14-22.02,1.87-16.6-.11-.5,14.24"/>
      <path class="cls-15" d="M723.8,47.1L29.8,117.4"/>
      <path class="cls-19" d="M234,97.4c0,2.6-2,4.7-4.6,4.7s-4.6-2.1-4.6-4.7,2-4.7,4.6-4.7,4.6,2.1,4.6,4.7Z"/>
      <path class="cls-19" d="M519.21,75.57c0,2.6-2,4.7-4.6,4.7s-4.6-2.1-4.6-4.7,2-4.7,4.6-4.7,4.6,2.1,4.6,4.7Z"/>
      <path class="cls-19" d="M49.83,146.37c0,2.6-2,4.7-4.6,4.7s-4.6-2.1-4.6-4.7,2-4.7,4.6-4.7,4.6,2.1,4.6,4.7Z"/>
      <path class="cls-19" d="M317.79,187.41c0,2.6-2,4.7-4.6,4.7s-4.6-2.1-4.6-4.7,2-4.7,4.6-4.7,4.6,2.1,4.6,4.7Z"/>
      <path class="cls-18" d="M197.1,372.2c.2-2.4,0-4.7-.7-7.1s-2.3-4-4.6-4.3c-2.3-.2-4.5.4-6.6,2-2.2,1.6-4,3.7-5.3,6.5-2.2,4-3,8.9-1.8,13.2.6,2.2,1.8,3.7,3.6,4.6,3,1.3,6.6,1.3,10-.6,1.7-1,3-2.2,4.1-3.7-1.7,3.4-3.9,6-6.5,7.8s-5.7,2.4-9.1,1.8c-3-.5-5.2-1.9-6.7-4.3-1.4-2.4-2.2-5.2-2-8.3,0-3.1,1-6,2.5-8.8,4.1-7.5,10.4-11.1,18.7-10.6,3.6.2,6.5,1.6,8.5,4l-3.9,7.8h-.2Z"/>
      <path class="cls-18" d="M218.6,390c1-.7,1.8-1.3,2.4-2l1.1-1.1c-.1,0-.5.6-1,1.2-1.1,1.3-1.3,1.6-2.4,2.6s-2.8,2-4.8,2.3c-3.4,0-3.4-2.9-2.5-5.1l3.2-8.2c2-5.3,2.3-8.1.7-8.4-1.1-.2-2.4.2-3.9,1.7s-2.9,3.2-4.2,5.4c-1.4,2.5-2.4,4.8-2.6,6.9-.4,2,0,3.4,1.1,4,1.1.5,2,.4,3.1-.2s1.9-1.3,2.5-2.3c0,0-.5,1-.7,1.3-.2.4-.7,1.3-1.2,1.9-1.4,1.6-3.1,3.2-6,3.1-4.7,0-5.5-7.2-1.6-13.4,2.2-3.5,4.9-6,7.3-7.1s4.2-1.6,5.7-1.4c1.8,0,3.1.7,4,1.9l1.4-.5,3-1.1-6.7,17.2c-.6,1.4-.6,2.2-.2,2.3.5,0,1.2-.1,2-.8"/>
      <path class="cls-18" d="M230,392.4h-5.2l6-15.6c.6-1.4.8-2.3.5-2.4-.4,0-1,0-1.7.5s-1.4,1-2.2,1.6l-1,.8c3.2-3.7,5.8-5.8,7.7-6,2.8-.4,3.4,1.8,2.2,4.5l-6.4,16.5v.2h.1v-.1ZM247,389.7c.8-.6,1.7-1.3,2.4-1.9l1-1-.6.7-.7.8c-.2.2-1.2,1.3-1.7,1.7-.4.4-1.3,1.1-1.9,1.4-1,.5-2,1-3.1,1-2.3,0-3.2-1.6-2.2-4.9l2.8-6.9c1.4-3.7,1.8-5.3,1-6.4-.6-.5-1.4-.7-2.8-.4-1.3.4-3.2,1.8-5.2,4.2,3.6-5.5,7.1-7.9,10.5-7.1,3,.6,4,3.2,2,8.4l-3.2,7.9c-.7,1.9-.8,2.9-.4,3,.4,0,1.1-.2,1.9-.8"/>
      <path class="cls-18" d="M272.5,390c.8-.6,1.7-1.2,2.4-1.9l1.1-1.1-1.6,1.9c-.4.4-.8,1-1.7,1.7-1.4,1.4-3,2.2-4.7,2.2s-3-2.3-1.9-5.1l3.5-8.5c1.8-4.8,1.9-7.5.2-7.7-1.1-.2-2.4.2-4,1.6-1.4,1.3-2.8,3-4.1,5.2-1.4,2.5-2.3,4.9-2.6,7.1-.4,2.3,0,3.6,1,4.1,1.1.5,2.2.4,3.4-.4,1.1-.7,2-1.6,2.6-2.5-1.9,4.5-4.7,6.7-8.1,6.7-4.8.2-5.8-7.5-1.7-13.6,2.3-3.6,4.9-6.3,7.3-7.3s4.1-1.4,5.8-1.3c1.2,0,2.2.5,2.8,1.3l3.1-7.6c.6-1.6.8-2.5.6-2.9-.4-.7-2.4-1.1-4-1.1h-1.1,11.1l-11.2,27.9c-.4,1-.5,1.6-.4,1.8.2.4.7.2,1.7-.4"/>
      <path class="cls-18" d="M296,371c1.9.2,3.2,1.1,4.1,2.5.8,1.4.5,3.1-1,4.9-1.4,1.7-3.6,2.8-6.5,3.1l-3,.2h-2.6c3.5-.4,6.4-1.9,8.7-4.8,1.4-1.9,2.5-5.4.8-5.8-1.2-.2-2.6.4-4.3,1.9-1.7,1.4-3.2,3.2-4.3,5.4-.7,1.3-1.2,2.8-1.6,4.3-.4,1.6-.2,3,0,4.3s1.1,2.3,2.3,2.5c4.3,1.1,7.3-1.8,8.4-3.2l.4-.5c-.2.4-.4,1-1.6,2.6s-1.3,1.7-2,2.3c-1.4,1.3-4.3,2.4-7.2,2-1.7-.2-3-1-4-2.4-2-2.8-2.2-6.9,0-11.4,1.8-3.6,4.3-6,6.9-7.1s4.6-1.3,6.5-1.2M296.3,369l5.8-3.9c1.8-1.1,1.8-2.6,1.1-3.1-.7-.8-2-.6-3.1,1.1l-3.7,5.8h0l-.1.1Z"/>
      <path class="cls-18" d="M135.9,362.1l3,13.7c.1.6.6,1.2,1.3,1.3l13.7,3-13.7,3c-.6.1-1.2.6-1.3,1.3l-3,13.7-3-13.7c-.1-.6-.6-1.2-1.3-1.3l-13.7-3,13.7-3c.6-.1,1.2-.6,1.3-1.3l3-13.7Z"/>
      <path d="M601.71,97.16l1.73-1.73-3.08-11.85,4.81-4.81c.74-.74.74-1.91,0-2.65s-1.91-.74-2.65,0l-4.81,4.81-11.85-3.08-1.73,1.73,9.62,5.24-4.81,4.81-3.52-.86-1.3,1.3,4.38,2.65,2.65,4.38,1.3-1.3-.86-3.52,4.81-4.81,5.24,9.62h.06v.06Z"/>
      <path class="cls-8" d="M444.7,911.6h279V-20.8H2.9L6.4,5.3l23.4,56.1v160.2l7.8,68.1,23.4,60.1,11.7,16,23.4,112.2,97.6,220.3-3.9,8,7.8,12,3.9,16,7.8,8v36.1l31.2,28,3.9,16.1,11.7,4,3.9-4,74.2,24,23.4,4,31.2,20,3.9-8,7.8,8,7.8,8h15.6l11.7,16.1,9.1,17h0Z"/>
      <g>
        <line class="cls-3" x1="109.66" y1="381.39" x2="109.66" y2="381.39"/>
        <line class="cls-4" x1="106.71" y1="385.52" x2="105.23" y2="387.58"/>
        <polyline class="cls-9" points="103.76 389.64 97.32 398.64 94.62 415.65 97.65 422.78 107.6 456.29 123.16 464.73"/>
        <line class="cls-3" x1="125.39" y1="465.94" x2="125.39" y2="465.94"/>
        <line class="cls-10" x1="126.7" y1="470.67" x2="127.36" y2="473.04"/>
        <polyline class="cls-17" points="128.01 475.41 130.34 483.83 150.16 516.46 160.07 545.94 168.98 564.88 174.93 600.67 174.93 625.94 191.18 655.4"/>
        <line class="cls-3" x1="192.36" y1="657.55" x2="192.36" y2="657.55"/>
        <line class="cls-2" x1="197.72" y1="657.78" x2="200.39" y2="657.9"/>
        <polyline class="cls-14" points="203.07 658.01 217.34 658.62 231.54 664"/>
        <line class="cls-3" x1="234.05" y1="664.95" x2="234.05" y2="664.95"/>
        <line class="cls-13" x1="236.01" y1="669.46" x2="236.98" y2="671.72"/>
        <polyline class="cls-6" points="237.96 673.97 247.26 695.41 252.21 721.72 247.92 747.19 252.44 756.22"/>
        <line class="cls-3" x1="253.54" y1="758.42" x2="253.54" y2="758.42"/>
        <line class="cls-12" x1="258.71" y1="759.11" x2="261.3" y2="759.46"/>
        <polyline class="cls-5" points="263.88 759.81 267.73 760.33 282.76 763.13 314.63 786.09 318.6 798.14 326.42 804.01"/>
        <line class="cls-3" x1="328.5" y1="805.57" x2="328.5" y2="805.57"/>
        <line class="cls-16" x1="333.53" y1="804.36" x2="336.04" y2="803.75"/>
        <path class="cls-7" d="M338.56,803.15l17.03-4.11,22.46-17.83,9.91-10.43s.8-2.24,5.36-7.46"/>
        <line class="cls-3" x1="395.05" y1="761.39" x2="395.05" y2="761.39"/>
      </g>
      <path class="cls-11" d="M507.09,76.06s-48.21,5.02-48.88,5.18-22.35,2.17-22.35,2.17l-3.89.47-1.83,1.09v2.76l1.42,7.94,1.83,9.7,3.84,3.09h2.92l2.84.67,2,1.42,1,2.09-1.08,3.09-1.67,4.68-6.51,5.18-4.92,4.35-9.09,4.85-5.17,2.84-5,.5-3-1s-5.42-4.18-5.67-4.35-4.67-4.51-4.67-4.51l-2.17-.67-2.17.5-3.17,3.85-6.42,7.78-2.59,3.76-2.75,1-3.75,2.59-.58,2.59-5.42,5.94-4.17,6.52-.75,1.06-1.28-1.34-9.06-7.97-15.01-10.53-12.9-10.26-10.95-7.69-2.56-2.79-3.95-.84-7.17-6.69-7.9-6.58-6.78-4.91-8.17-3.57-4.45-.45-4.34-.28-13.51,1.39-2.73.46-21.28,1.59"/>
      <polyline class="cls-11" points="330.61 139.91 330.72 148.18 327.42 167 322.47 175.59 319.05 180.33 315.25 182.96"/>
      <polyline class="cls-11" points="328.5 805.57 334.78 813.5 343.76 817.91 355.48 822.53 370.84 823.69"/>
      <text class="cls-20" transform="translate(60.47 65.4) rotate(-6.23)"><tspan class="cls-23" x="0" y="0">S</tspan><tspan x="15.99" y="0">AN DI</tspan><tspan class="cls-24" x="89.7" y="0">E</tspan><tspan class="cls-21" x="105.3" y="0">G</tspan><tspan class="cls-22" x="126.52" y="0">O</tspan></text>
      <g>
        <path d="M205.93,133.5c-.7,0-1.33-.09-1.88-.26-.56-.17-1.03-.43-1.42-.75-.39-.33-.69-.72-.9-1.19-.21-.46-.31-.98-.31-1.55h2.47c0,.54.18.95.55,1.24.36.29.85.44,1.47.44.53,0,.95-.1,1.25-.31.31-.21.46-.49.46-.86,0-.39-.18-.71-.55-.95-.36-.24-.94-.45-1.74-.62-1.31-.27-2.28-.69-2.9-1.24-.62-.56-.93-1.29-.93-2.2,0-.51.09-.97.29-1.37s.46-.75.82-1.03c.36-.28.8-.5,1.31-.65.51-.15,1.09-.23,1.72-.23.66,0,1.25.09,1.79.26.53.17.99.42,1.36.74.38.32.66.7.87,1.15.2.45.3.95.3,1.52h-2.43c0-.51-.16-.9-.49-1.18-.33-.28-.78-.42-1.36-.42-.54,0-.96.1-1.26.31-.3.21-.45.5-.45.86,0,.34.17.62.51.86.34.23.93.45,1.78.65,1.39.33,2.38.76,3,1.31.61.54.92,1.26.92,2.15,0,1.06-.38,1.88-1.13,2.47-.76.59-1.79.88-3.12.88Z"/>
        <path d="M214.63,133.43c-.99,0-1.77-.23-2.34-.69-.57-.46-.85-1.09-.85-1.9s.26-1.39.77-1.85c.51-.46,1.2-.69,2.07-.69h3.01s0-.38,0-.38c0-.41-.15-.74-.44-.99s-.68-.37-1.16-.37c-.39,0-.72.09-1,.27-.28.18-.45.42-.52.71h-2.32c.15-.91.55-1.61,1.22-2.09.67-.49,1.53-.73,2.6-.73,1.25,0,2.22.31,2.93.94.7.62,1.06,1.49,1.06,2.6v5.01s-1.79,0-1.79,0l-.27-.97c-.73.75-1.72,1.13-2.97,1.13ZM213.82,130.75c0,.29.12.52.37.69.25.17.58.26.99.26.6,0,1.1-.17,1.5-.52.4-.34.61-.8.63-1.37h-2.29c-.37,0-.66.09-.88.25-.22.17-.33.4-.33.68Z"/>
        <path d="M221.77,124.94h1.79s.25.94.25.94c.34-.39.75-.68,1.22-.87.48-.19.99-.29,1.55-.29.54,0,1.03.09,1.46.26.43.17.8.43,1.1.75.3.33.53.72.69,1.19.16.47.24.98.24,1.55v4.79s-2.41,0-2.41,0v-4.54c0-.61-.15-1.09-.44-1.44-.29-.34-.7-.52-1.21-.52-.56,0-1.01.19-1.34.56s-.5.9-.5,1.56v4.36s-2.41,0-2.41,0v-8.33Z"/>
        <path d="M238.27,129.37l-4.1-7.22h2.87s1.38,2.57,1.38,2.57l1.11,2.01,1.09-2.02,1.36-2.57h2.87s-4.08,7.19-4.08,7.19v3.92s-2.52,0-2.52,0v-3.89Z"/>
        <path d="M248,133.48c-.57,0-1.09-.07-1.55-.21-.47-.14-.86-.33-1.19-.59-.33-.25-.58-.56-.76-.92-.18-.36-.27-.76-.27-1.19h2.36c.01.34.14.61.4.81s.6.3,1.05.3c.38,0,.68-.07.89-.21.21-.14.32-.34.32-.58,0-.26-.14-.48-.43-.65-.29-.17-.75-.31-1.4-.43-1.07-.19-1.85-.49-2.34-.91-.49-.42-.74-.98-.74-1.67,0-.81.3-1.44.91-1.87.61-.43,1.47-.65,2.59-.65s1.99.23,2.62.71c.62.47.96,1.15,1.02,2.04h-2.3c-.02-.32-.15-.56-.39-.74-.24-.17-.56-.26-.96-.26-.36,0-.64.07-.85.21-.21.14-.31.33-.31.57s.13.45.4.59.76.29,1.47.44c2.05.41,3.08,1.29,3.08,2.65,0,.79-.32,1.42-.96,1.88-.64.46-1.53.69-2.66.69Z"/>
        <path d="M252.97,122.23c0-.44.14-.81.43-1.09.29-.28.66-.42,1.13-.42.46,0,.84.14,1.13.42.29.28.43.64.43,1.09,0,.44-.14.81-.43,1.09-.29.28-.66.42-1.13.42-.46,0-.84-.14-1.13-.42-.29-.28-.43-.64-.43-1.09ZM253.32,124.93h2.41s0,8.33,0,8.33h-2.41s0-8.33,0-8.33Z"/>
        <path d="M261.65,133.47c-.61,0-1.18-.11-1.71-.32-.52-.22-.97-.52-1.34-.9-.37-.39-.66-.85-.87-1.39-.21-.54-.32-1.13-.32-1.78s.1-1.22.32-1.76c.21-.54.5-1,.87-1.39.37-.39.82-.69,1.34-.9.52-.22,1.09-.33,1.71-.33.52,0,1,.08,1.44.23.44.15.85.37,1.21.64v-4.06s2.41,0,2.41,0v11.74s-1.79,0-1.79,0l-.29-.95c-.37.37-.81.66-1.32.86-.51.21-1.06.31-1.67.31ZM259.8,129.08c0,.69.21,1.25.64,1.67.42.43.98.64,1.67.64.34,0,.65-.06.93-.17.28-.11.52-.27.72-.48.2-.21.36-.45.47-.74s.17-.6.17-.94c0-.34-.06-.65-.17-.93s-.27-.52-.47-.73c-.2-.21-.44-.37-.72-.48-.28-.12-.59-.17-.93-.17-.34,0-.65.06-.94.17-.29.12-.53.28-.73.48-.2.21-.36.45-.47.73-.11.28-.17.59-.17.93Z"/>
        <path d="M268.98,124.92h1.79s.32,1.11.32,1.11c.27-.39.61-.67,1.02-.85.4-.17.91-.26,1.52-.26h.9s0,2.19,0,2.19h-.92c-.7,0-1.24.19-1.63.56-.39.37-.59,1.01-.59,1.9v3.68s-2.41,0-2.41,0v-8.33Z"/>
        <path d="M279.72,133.47c-.7,0-1.33-.11-1.9-.32-.57-.21-1.06-.51-1.48-.9-.41-.39-.73-.86-.96-1.4-.23-.54-.34-1.13-.34-1.78,0-.65.11-1.24.34-1.78.23-.54.55-1,.96-1.39s.9-.69,1.48-.9c.57-.21,1.21-.32,1.9-.32.69,0,1.32.11,1.89.32s1.06.51,1.48.9c.41.39.73.85.96,1.39.23.54.34,1.13.34,1.78,0,.65-.11,1.24-.34,1.78-.23.54-.55,1-.96,1.4-.41.39-.9.69-1.47.91-.57.21-1.2.32-1.89.32ZM277.42,129.07c0,.34.06.65.17.94s.27.53.48.74c.21.21.45.36.73.48.28.11.59.17.93.17s.65-.06.93-.17.52-.27.72-.48c.2-.21.36-.45.47-.74.11-.29.17-.6.17-.94s-.06-.65-.17-.94c-.11-.28-.27-.53-.47-.74-.2-.21-.44-.37-.72-.48-.28-.11-.59-.17-.93-.17s-.65.06-.93.17c-.28.11-.52.27-.73.48-.21.21-.36.45-.48.74-.11.29-.17.6-.17.94Z"/>
      </g>
      <g>
        <path d="M201.36,148.68c0-.6.12-1.12.35-1.56.23-.44.54-.82.92-1.15.38-.33.81-.61,1.28-.86.47-.24.94-.48,1.42-.7.41-.19.81-.39,1.21-.59.39-.2.73-.42,1.03-.66.3-.24.53-.51.71-.81s.27-.65.27-1.05c0-.33-.06-.63-.19-.91-.13-.28-.31-.52-.55-.73-.24-.21-.54-.37-.89-.48-.35-.12-.75-.17-1.19-.17-.95,0-1.7.26-2.24.78-.54.52-.87,1.25-.97,2.19h-1.11c.05-.59.18-1.13.4-1.62.21-.49.5-.9.87-1.25.37-.35.81-.62,1.33-.81.52-.19,1.1-.29,1.76-.29.59,0,1.13.08,1.6.23.48.15.89.37,1.23.66s.61.63.79,1.03c.19.4.28.85.28,1.35,0,.56-.12,1.05-.35,1.46-.23.41-.53.78-.9,1.09-.37.32-.79.6-1.25.83-.47.24-.94.47-1.41.69-.42.19-.83.39-1.23.59-.4.2-.75.42-1.05.67-.3.24-.54.51-.72.81s-.27.64-.27,1.03v.1h7.19s0,.98,0,.98h-8.3s0-.84,0-.84Z"/>
        <path d="M210.64,143.85c0-.9.11-1.71.32-2.43.22-.72.53-1.33.93-1.84.4-.51.89-.9,1.45-1.17.57-.27,1.2-.41,1.91-.41.72,0,1.36.13,1.94.4s1.06.66,1.45,1.17.7,1.12.92,1.85c.22.72.33,1.54.33,2.44,0,.9-.11,1.71-.32,2.43-.22.72-.53,1.33-.93,1.84-.4.51-.89.9-1.46,1.17-.57.27-1.21.4-1.92.4-.71,0-1.35-.13-1.91-.4-.57-.27-1.05-.66-1.45-1.17s-.71-1.12-.93-1.84c-.22-.72-.33-1.53-.33-2.43ZM211.75,143.85c0,1.54.31,2.74.91,3.58.61.84,1.47,1.26,2.59,1.26,1.11,0,1.97-.42,2.59-1.27.62-.85.93-2.04.93-3.57,0-1.54-.31-2.74-.92-3.58-.61-.85-1.48-1.27-2.6-1.27-1.11,0-1.97.42-2.59,1.27-.61.85-.92,2.04-.92,3.58Z"/>
        <path d="M224.01,141.02h.95l.05,1.79c.2-.66.54-1.15,1.03-1.48.49-.33,1.06-.49,1.73-.49.73,0,1.32.19,1.78.56.45.38.77.88.94,1.51.18-.69.52-1.21,1.02-1.56.5-.35,1.1-.52,1.8-.52.46,0,.88.08,1.24.23.36.15.66.37.91.66s.44.63.56,1.02c.13.4.19.83.19,1.31v5.44s-1.04,0-1.04,0v-5.09c0-.81-.17-1.45-.51-1.91-.34-.46-.86-.69-1.56-.69-.38,0-.72.07-1.02.21-.3.14-.56.34-.78.59-.22.25-.38.54-.49.88-.11.34-.17.7-.17,1.09v4.92s-1.04,0-1.04,0v-5.09c0-.81-.17-1.45-.51-1.91s-.86-.69-1.57-.69c-.38,0-.72.07-1.02.21-.3.14-.56.34-.77.59-.21.25-.38.54-.49.88s-.17.7-.17,1.09v4.92s-1.04,0-1.04,0v-8.49Z"/>
        <path d="M237.56,138.02h1.24s0,1.49,0,1.49h-1.24s0-1.49,0-1.49ZM237.67,141.02h1.03s0,8.49,0,8.49h-1.03s0-8.49,0-8.49Z"/>
        <path d="M240.22,141.02h.95s.03,1.81.03,1.81c.21-.66.58-1.15,1.09-1.48.52-.33,1.13-.5,1.84-.5.97,0,1.72.3,2.25.89.52.59.79,1.37.79,2.33v5.44s-1.04,0-1.04,0v-5.09c0-.81-.18-1.45-.54-1.91s-.92-.69-1.68-.69c-.4,0-.77.07-1.09.21-.33.14-.61.34-.83.6-.23.25-.4.55-.52.89-.12.34-.18.7-.18,1.08v4.92s-1.05,0-1.05,0v-8.49Z"/>
      </g>
      <g>
        <path d="M331.15,186.99h-3.52v-2.36h9.57v2.36h-3.52v8.74h-2.52v-8.74Z"/>
        <path d="M338.05,184.71c0-.44.14-.81.43-1.09.29-.28.66-.42,1.13-.42s.84.14,1.13.42c.29.28.43.64.43,1.09s-.14.81-.43,1.09c-.29.28-.66.42-1.13.42s-.84-.14-1.13-.42c-.29-.28-.43-.64-.43-1.09ZM338.4,187.41h2.41v8.33h-2.41v-8.33Z"/>
        <path d="M341.15,197.1h.83c.38,0,.66-.1.85-.29.18-.2.28-.54.28-1.02v-8.38h2.41v8.42c0,1.14-.25,1.99-.75,2.55-.5.56-1.31.84-2.44.84h-1.17v-2.13ZM342.73,184.71c0-.44.14-.81.43-1.09.29-.28.66-.42,1.13-.42s.83.14,1.11.42c.29.28.43.64.43,1.09s-.14.81-.43,1.09c-.29.28-.66.42-1.11.42s-.84-.14-1.13-.42c-.29-.28-.43-.64-.43-1.09Z"/>
        <path d="M351.09,195.96c-.54,0-1.02-.09-1.45-.26-.43-.17-.79-.43-1.09-.75-.3-.33-.53-.72-.69-1.19-.16-.47-.24-.99-.24-1.57v-4.77h2.41v4.54c0,.61.14,1.09.44,1.43.29.34.69.51,1.2.51.55,0,.99-.19,1.32-.56.33-.38.49-.9.49-1.56v-4.35h2.41v8.33h-1.79l-.25-.94c-.34.39-.74.68-1.21.87-.47.19-.98.29-1.53.29Z"/>
        <path d="M360.93,195.89c-.99,0-1.77-.23-2.34-.69-.57-.46-.85-1.09-.85-1.9s.26-1.39.77-1.85c.51-.46,1.2-.69,2.07-.69h3.01v-.38c0-.41-.15-.74-.44-.99s-.68-.37-1.16-.37c-.39,0-.72.09-1,.27-.28.18-.45.42-.52.71h-2.32c.15-.91.55-1.61,1.22-2.09.67-.49,1.53-.73,2.6-.73,1.25,0,2.22.31,2.93.94s1.05,1.49,1.05,2.6v5.01h-1.79l-.27-.97c-.73.75-1.72,1.13-2.97,1.13ZM360.12,193.21c0,.29.12.52.37.69.25.17.58.26.99.26.6,0,1.1-.17,1.5-.52s.61-.8.63-1.37h-2.28c-.37,0-.66.08-.88.25-.22.17-.33.4-.33.68Z"/>
        <path d="M368.07,187.41h1.79l.25.94c.34-.39.75-.68,1.22-.87.48-.19.99-.29,1.55-.29s1.03.09,1.46.26c.43.17.8.43,1.1.75.3.33.53.72.69,1.19.16.47.24.98.24,1.55v4.79h-2.41v-4.54c0-.61-.15-1.09-.44-1.44-.29-.34-.7-.52-1.21-.52-.56,0-1.01.19-1.34.56-.33.38-.5.9-.5,1.56v4.36h-2.41v-8.33Z"/>
        <path d="M381.26,195.89c-.99,0-1.77-.23-2.34-.69-.57-.46-.85-1.09-.85-1.9s.26-1.39.77-1.85c.51-.46,1.2-.69,2.07-.69h3.01v-.38c0-.41-.15-.74-.44-.99s-.68-.37-1.16-.37c-.39,0-.72.09-1,.27-.28.18-.45.42-.52.71h-2.32c.15-.91.55-1.61,1.22-2.09.67-.49,1.53-.73,2.6-.73,1.25,0,2.22.31,2.93.94s1.05,1.49,1.05,2.6v5.01h-1.79l-.27-.97c-.73.75-1.72,1.13-2.97,1.13ZM380.46,193.21c0,.29.12.52.37.69.25.17.58.26.99.26.6,0,1.1-.17,1.5-.52s.61-.8.63-1.37h-2.28c-.37,0-.66.08-.88.25-.22.17-.33.4-.33.68Z"/>
      </g>
      <g>
        <path d="M328.79,208.54c.11.82.43,1.47.98,1.93.55.46,1.29.69,2.24.69.47,0,.89-.06,1.26-.17.38-.11.7-.27.98-.48.27-.21.49-.46.63-.75.15-.3.22-.62.22-.98,0-.71-.28-1.26-.84-1.65-.56-.39-1.35-.59-2.38-.59h-1.03v-1h1.02c.89,0,1.58-.18,2.07-.53.49-.35.74-.85.74-1.48s-.24-1.12-.72-1.48c-.48-.36-1.13-.55-1.96-.55s-1.52.19-2.02.58c-.5.39-.78.93-.83,1.63h-1.11c.08-1,.48-1.8,1.17-2.37.7-.58,1.62-.86,2.78-.86.57,0,1.09.07,1.56.21.47.14.87.35,1.21.61.33.26.59.58.77.95s.27.78.27,1.22c0,1.31-.74,2.15-2.22,2.52.83.18,1.49.52,1.95,1.02.47.5.7,1.12.7,1.85,0,.49-.1.93-.31,1.34s-.5.76-.87,1.05c-.38.29-.82.52-1.33.67s-1.08.24-1.71.24c-1.27,0-2.28-.32-3.02-.96-.75-.64-1.18-1.53-1.29-2.66h1.11Z"/>
        <path d="M337.1,206.32c0-.9.11-1.71.33-2.43.22-.72.53-1.33.93-1.84.4-.51.89-.9,1.45-1.17.57-.27,1.2-.41,1.91-.41s1.36.13,1.94.4c.57.27,1.05.66,1.45,1.17.4.51.7,1.12.92,1.85.22.72.33,1.54.33,2.44s-.11,1.71-.33,2.43-.53,1.33-.93,1.84-.89.9-1.46,1.17c-.57.27-1.21.4-1.92.4s-1.35-.13-1.91-.4c-.57-.27-1.05-.66-1.45-1.17s-.71-1.12-.93-1.84-.33-1.53-.33-2.43ZM338.21,206.32c0,1.54.3,2.74.91,3.58s1.47,1.26,2.59,1.26,1.97-.42,2.59-1.27c.62-.85.93-2.04.93-3.57s-.31-2.74-.92-3.58-1.48-1.27-2.6-1.27-1.97.42-2.59,1.27-.92,2.04-.92,3.58Z"/>
        <path d="M350.47,203.49h.95l.05,1.79c.2-.66.54-1.15,1.03-1.48.49-.33,1.06-.49,1.73-.49.73,0,1.32.19,1.78.56.46.38.77.88.94,1.52.18-.69.52-1.21,1.02-1.55.5-.35,1.1-.52,1.8-.52.47,0,.88.08,1.24.23s.66.37.91.66c.25.29.44.63.56,1.02s.19.83.19,1.31v5.44h-1.05v-5.09c0-.81-.17-1.45-.51-1.91-.34-.46-.86-.69-1.55-.69-.38,0-.72.07-1.02.21-.3.14-.56.34-.78.59-.22.25-.38.54-.49.88-.11.34-.17.7-.17,1.09v4.92h-1.05v-5.09c0-.81-.17-1.45-.51-1.91s-.86-.69-1.57-.69c-.38,0-.72.07-1.02.21-.3.14-.56.34-.77.59-.21.25-.38.54-.49.88-.12.34-.17.7-.17,1.09v4.92h-1.05v-8.49Z"/>
        <path d="M364.02,200.49h1.24v1.49h-1.24v-1.49ZM364.13,203.49h1.03v8.49h-1.03v-8.49Z"/>
        <path d="M366.69,203.49h.95l.03,1.81c.21-.66.58-1.15,1.09-1.48.52-.33,1.13-.5,1.84-.5.97,0,1.72.3,2.25.89.52.59.79,1.37.79,2.33v5.44h-1.05v-5.09c0-.81-.18-1.45-.54-1.91s-.92-.69-1.68-.69c-.4,0-.77.07-1.09.21-.33.14-.61.34-.83.6-.23.25-.4.55-.52.89-.12.34-.18.7-.18,1.08v4.92h-1.05v-8.49Z"/>
      </g>
      <g>
        <path d="M392.22,816.58h7.3v2.13h-4.79v2.3h4.36v2.11h-4.36v2.43h4.96v2.14h-7.47v-11.11Z"/>
        <path d="M401.56,819.35h1.79l.25.94c.34-.39.75-.68,1.22-.87.48-.19.99-.29,1.55-.29s1.03.09,1.46.26c.43.17.8.43,1.1.75s.53.72.69,1.19c.16.47.24.98.24,1.55v4.79h-2.41v-4.54c0-.61-.15-1.09-.44-1.44-.29-.34-.7-.52-1.21-.52-.56,0-1.01.19-1.34.56-.33.38-.5.9-.5,1.56v4.36h-2.41v-8.33Z"/>
        <path d="M415.19,827.9c-.57,0-1.09-.07-1.55-.21-.47-.14-.86-.33-1.19-.59-.33-.25-.58-.56-.76-.92-.18-.36-.27-.76-.27-1.19h2.36c.01.34.14.61.4.81.25.2.6.3,1.05.3.38,0,.68-.07.89-.21s.32-.33.32-.58c0-.26-.14-.48-.43-.65-.29-.17-.75-.31-1.4-.43-1.07-.19-1.85-.49-2.34-.91s-.74-.98-.74-1.67c0-.81.3-1.44.91-1.87.61-.43,1.47-.65,2.59-.65s1.99.24,2.62.71c.62.47.96,1.15,1.01,2.04h-2.3c-.02-.32-.15-.56-.39-.74-.24-.17-.56-.26-.96-.26-.36,0-.64.07-.85.21-.21.14-.31.33-.31.57s.13.45.4.59c.27.14.76.29,1.47.44,2.05.41,3.08,1.3,3.08,2.65,0,.79-.32,1.42-.96,1.88-.64.46-1.53.69-2.66.69Z"/>
        <path d="M424.46,827.9c-.67,0-1.28-.11-1.83-.32-.56-.21-1.03-.51-1.43-.9-.4-.39-.71-.86-.93-1.4s-.33-1.13-.33-1.78.11-1.24.33-1.78.53-1,.94-1.39c.4-.39.88-.68,1.44-.9.55-.21,1.17-.32,1.85-.32.72,0,1.37.12,1.94.37.57.24,1.05.59,1.45,1.03.4.44.69.98.89,1.6.2.62.28,1.32.25,2.08h-6.68c.12.57.37,1.01.76,1.31.39.3.86.45,1.41.45.4,0,.77-.08,1.1-.23.33-.15.6-.37.8-.64h2.44c-.37.89-.94,1.58-1.71,2.07s-1.66.74-2.69.74ZM426.68,822.68c-.14-.51-.39-.91-.77-1.2s-.84-.44-1.4-.44-1,.14-1.38.44c-.38.29-.64.69-.78,1.2h4.33Z"/>
        <path d="M430.68,819.35h1.79l.25.94c.34-.39.75-.68,1.22-.87.48-.19.99-.29,1.55-.29s1.03.09,1.46.26c.43.17.8.43,1.1.75.3.33.53.72.69,1.19.16.47.24.98.24,1.55v4.79h-2.41v-4.54c0-.61-.14-1.09-.44-1.44s-.7-.52-1.21-.52c-.56,0-1.01.19-1.34.56-.33.38-.5.9-.5,1.56v4.36h-2.41v-8.33Z"/>
        <path d="M443.87,827.84c-.99,0-1.77-.23-2.34-.69-.57-.46-.85-1.09-.85-1.9s.26-1.39.77-1.85c.51-.46,1.2-.69,2.07-.69h3.01v-.38c0-.41-.15-.74-.44-.99-.3-.25-.68-.37-1.16-.37-.39,0-.72.09-1,.27-.28.18-.45.42-.52.71h-2.32c.15-.91.55-1.61,1.22-2.09.67-.49,1.53-.73,2.6-.73,1.25,0,2.22.31,2.93.94.7.62,1.05,1.49,1.05,2.6v5.01h-1.79l-.27-.97c-.73.75-1.72,1.13-2.97,1.13ZM443.06,825.16c0,.29.12.52.37.69.25.17.58.26.99.26.6,0,1.1-.17,1.5-.52s.61-.8.63-1.37h-2.28c-.37,0-.66.09-.88.25-.22.17-.33.4-.33.68Z"/>
        <path d="M454.66,827.9c-.61,0-1.18-.11-1.71-.33s-.97-.52-1.34-.9c-.37-.38-.66-.85-.87-1.39-.21-.54-.32-1.13-.32-1.78s.11-1.22.32-1.76c.21-.54.5-1,.87-1.39.37-.39.82-.69,1.34-.9.52-.22,1.09-.33,1.71-.33.52,0,1,.08,1.44.23s.85.37,1.21.64v-4.06h2.41v11.74h-1.79l-.29-.95c-.37.37-.81.66-1.32.86-.51.21-1.06.31-1.67.31ZM452.8,823.51c0,.69.21,1.25.63,1.67.42.43.98.64,1.67.64.34,0,.65-.06.93-.17.28-.11.52-.27.72-.48.2-.21.36-.45.47-.74s.17-.6.17-.94-.06-.65-.17-.93c-.11-.28-.27-.52-.47-.73-.2-.21-.44-.37-.72-.48-.28-.12-.59-.17-.93-.17s-.65.06-.94.17c-.29.12-.53.28-.73.48-.2.21-.36.45-.47.73-.11.28-.17.59-.17.93Z"/>
        <path d="M464.76,827.84c-.99,0-1.77-.23-2.34-.69-.57-.46-.85-1.09-.85-1.9s.26-1.39.77-1.85,1.2-.69,2.07-.69h3.01v-.38c0-.41-.15-.74-.45-.99-.29-.25-.68-.37-1.16-.37-.39,0-.72.09-1,.27-.28.18-.45.42-.52.71h-2.32c.15-.91.55-1.61,1.22-2.09s1.53-.73,2.6-.73c1.25,0,2.22.31,2.93.94.7.62,1.05,1.49,1.05,2.6v5.01h-1.79l-.27-.97c-.73.75-1.72,1.13-2.97,1.13ZM463.96,825.16c0,.29.12.52.37.69.25.17.58.26.99.26.6,0,1.1-.17,1.5-.52s.61-.8.63-1.37h-2.29c-.37,0-.66.09-.88.25-.22.17-.33.4-.33.68Z"/>
      </g>
      <g>
        <path d="M391.97,838.56c0-.79.08-1.56.24-2.3.16-.74.42-1.4.79-1.97.37-.57.84-1.03,1.42-1.37.58-.34,1.3-.52,2.16-.52,1.12,0,2.01.28,2.67.83.66.56,1.07,1.3,1.25,2.23h-1.11c-.12-.66-.43-1.16-.93-1.52-.5-.36-1.13-.54-1.88-.54-.61,0-1.14.12-1.57.37s-.79.58-1.06,1.02c-.27.44-.48.97-.63,1.58s-.22,1.29-.25,2.01c.26-.58.7-1.07,1.31-1.46.61-.39,1.33-.59,2.18-.59.62,0,1.18.09,1.68.27.5.18.92.44,1.29.77.36.33.63.73.82,1.2.19.46.29.98.29,1.55,0,.6-.1,1.15-.29,1.64-.2.49-.47.91-.83,1.25-.36.34-.79.61-1.3.79-.51.18-1.08.28-1.71.28s-1.23-.11-1.78-.33-1.03-.55-1.44-1.01c-.41-.45-.73-1.03-.96-1.73-.23-.7-.35-1.52-.35-2.47ZM393.32,840.01c0,.44.08.85.25,1.23.16.38.39.7.67.98s.62.49,1.02.65c.39.16.81.24,1.27.24s.88-.07,1.25-.21c.37-.14.69-.34.94-.6s.46-.57.59-.94c.14-.36.21-.77.21-1.21s-.07-.83-.22-1.17c-.15-.35-.35-.65-.61-.9-.26-.25-.57-.44-.94-.57-.37-.13-.78-.2-1.22-.2s-.88.06-1.27.19c-.39.13-.73.31-1.02.54-.29.23-.51.52-.67.85-.16.33-.25.71-.25,1.13Z"/>
        <path d="M401.47,838.26c0-.9.11-1.71.33-2.43.22-.72.53-1.33.93-1.84s.89-.9,1.45-1.17,1.2-.41,1.91-.41,1.37.13,1.94.4c.57.27,1.05.66,1.45,1.17s.7,1.12.92,1.85c.22.72.33,1.54.33,2.44s-.11,1.71-.33,2.43c-.22.72-.53,1.33-.93,1.84s-.89.9-1.46,1.17c-.57.27-1.21.4-1.92.4s-1.35-.13-1.91-.4-1.05-.66-1.45-1.17-.71-1.12-.93-1.84c-.22-.72-.33-1.53-.33-2.43ZM402.58,838.26c0,1.54.3,2.74.91,3.58.61.84,1.47,1.26,2.59,1.26s1.97-.42,2.59-1.27c.62-.85.93-2.04.93-3.57s-.31-2.74-.92-3.58c-.61-.85-1.48-1.27-2.6-1.27s-1.97.42-2.59,1.27c-.61.85-.92,2.04-.92,3.58Z"/>
        <path d="M414.84,835.44h.95l.05,1.79c.2-.66.54-1.15,1.03-1.48.49-.33,1.06-.49,1.73-.49.73,0,1.32.19,1.78.56.45.38.77.88.94,1.52.18-.69.52-1.21,1.02-1.55.5-.35,1.1-.52,1.8-.52.47,0,.88.08,1.24.23s.66.37.91.66c.25.29.44.63.56,1.02s.19.83.19,1.31v5.44h-1.05v-5.09c0-.81-.17-1.45-.51-1.91-.34-.46-.86-.69-1.55-.69-.38,0-.72.07-1.02.21s-.56.34-.78.59c-.22.25-.38.54-.49.88-.11.34-.17.7-.17,1.09v4.92h-1.05v-5.09c0-.81-.17-1.45-.51-1.91-.34-.46-.86-.69-1.57-.69-.38,0-.72.07-1.02.21-.3.14-.56.34-.77.59-.21.25-.38.54-.49.88-.12.34-.17.7-.17,1.09v4.92h-1.05v-8.49Z"/>
        <path d="M428.39,832.44h1.24v1.49h-1.24v-1.49ZM428.5,835.44h1.03v8.49h-1.03v-8.49Z"/>
        <path d="M431.06,835.44h.95l.03,1.81c.21-.66.58-1.15,1.1-1.48.52-.33,1.13-.5,1.84-.5.97,0,1.72.3,2.24.89.52.59.79,1.37.79,2.33v5.44h-1.05v-5.09c0-.81-.18-1.45-.54-1.91s-.92-.69-1.68-.69c-.4,0-.77.07-1.09.21s-.61.34-.83.59c-.23.25-.4.55-.52.89-.12.34-.18.7-.18,1.08v4.92h-1.05v-8.49Z"/>
      </g>
      <g>
        <path d="M16.82,484h4.74c.63,0,1.21.09,1.72.26s.95.43,1.31.76.64.74.83,1.21c.2.47.29,1,.29,1.59,0,.83-.19,1.53-.56,2.11-.37.58-.89,1.02-1.55,1.32l2.3,3.85h-2.92l-1.98-3.46h-1.67v3.46h-2.52v-11.1ZM21.23,489.52c.62,0,1.1-.15,1.44-.44.33-.29.5-.71.5-1.25s-.17-.95-.5-1.25c-.33-.29-.81-.44-1.44-.44h-1.92v3.36h1.92Z"/>
        <path d="M31.16,495.33c-.7,0-1.33-.11-1.9-.32-.57-.21-1.06-.51-1.48-.9-.41-.39-.73-.86-.96-1.4-.23-.54-.34-1.13-.34-1.78s.11-1.24.34-1.78c.23-.54.55-1,.96-1.39.41-.39.9-.68,1.48-.9.57-.21,1.21-.32,1.9-.32s1.32.11,1.89.32c.57.21,1.06.51,1.47.9.41.39.73.85.96,1.39.23.54.34,1.13.34,1.78s-.11,1.24-.34,1.78c-.23.54-.55,1-.96,1.4-.41.39-.9.69-1.47.9-.57.21-1.2.32-1.89.32ZM28.86,490.94c0,.34.06.65.17.94.11.29.27.53.48.74s.45.36.73.48.59.17.93.17.65-.06.93-.17.52-.27.72-.48.36-.45.47-.74c.11-.29.17-.6.17-.94s-.06-.65-.17-.94c-.11-.29-.27-.53-.47-.74s-.44-.37-.72-.48c-.28-.11-.59-.17-.93-.17s-.65.06-.93.17c-.28.11-.52.27-.73.48s-.37.45-.48.74c-.11.29-.17.6-.17.94Z"/>
        <path d="M40.71,495.33c-.57,0-1.09-.07-1.55-.21-.47-.14-.86-.33-1.19-.59-.33-.25-.58-.56-.76-.92-.18-.36-.27-.76-.27-1.19h2.36c.01.34.14.61.4.81.25.2.6.3,1.05.3.38,0,.68-.07.89-.21.21-.14.32-.34.32-.58,0-.26-.14-.48-.43-.65-.29-.17-.75-.31-1.4-.43-1.07-.19-1.85-.49-2.34-.91-.49-.42-.74-.98-.74-1.67,0-.81.3-1.44.91-1.87.61-.43,1.47-.65,2.59-.65s1.99.24,2.62.71c.62.47.96,1.15,1.01,2.04h-2.3c-.02-.32-.15-.56-.39-.74-.24-.17-.56-.26-.96-.26-.36,0-.64.07-.85.21-.21.14-.31.33-.31.57s.13.45.4.59c.27.14.76.29,1.47.44,2.05.41,3.08,1.3,3.08,2.65,0,.79-.32,1.42-.96,1.88-.64.46-1.53.69-2.66.69Z"/>
        <path d="M48.75,495.27c-.99,0-1.77-.23-2.34-.69-.57-.46-.85-1.09-.85-1.9s.26-1.39.77-1.85c.51-.46,1.2-.69,2.07-.69h3.01v-.38c0-.41-.15-.74-.44-.99-.3-.25-.68-.37-1.16-.37-.39,0-.72.09-1,.27-.28.18-.45.42-.52.71h-2.32c.15-.91.55-1.61,1.22-2.09.67-.49,1.53-.73,2.6-.73,1.25,0,2.22.31,2.93.94s1.05,1.49,1.05,2.6v5.01h-1.79l-.27-.97c-.73.75-1.72,1.13-2.97,1.13ZM47.94,492.59c0,.29.12.52.37.69.25.17.58.26.99.26.6,0,1.1-.17,1.5-.52s.61-.8.63-1.37h-2.28c-.37,0-.66.08-.88.25s-.33.4-.33.68Z"/>
        <path d="M55.89,486.78h1.79l.32,1.11c.28-.39.61-.67,1.02-.85.4-.17.91-.26,1.52-.26h.9v2.19h-.92c-.7,0-1.24.18-1.63.55s-.59,1-.59,1.9v3.68h-2.41v-8.33Z"/>
        <path d="M62.7,484.08c0-.44.14-.81.43-1.09.29-.28.66-.42,1.13-.42s.84.14,1.13.42c.29.28.43.64.43,1.09s-.14.81-.43,1.09c-.29.28-.66.42-1.13.42s-.84-.14-1.13-.42-.43-.64-.43-1.09ZM63.05,486.78h2.41v8.33h-2.41v-8.33Z"/>
        <path d="M71.74,495.11c-1.06,0-1.87-.27-2.44-.81-.57-.54-.85-1.32-.85-2.35v-3.21h-1.62v-1.97h.75c.22,0,.41-.02.55-.05.15-.03.27-.09.37-.17.09-.08.17-.19.22-.33.05-.14.1-.32.13-.53l.14-1.08h1.87v2.16h2.29v1.97h-2.29v2.84c0,.95.47,1.43,1.4,1.43h1v2.09h-1.52Z"/>
        <path d="M78.77,495.33c-.7,0-1.33-.11-1.9-.32-.57-.21-1.06-.51-1.48-.9-.41-.39-.73-.86-.96-1.4-.23-.54-.34-1.13-.34-1.78s.11-1.24.34-1.78c.23-.54.55-1,.96-1.39.41-.39.9-.68,1.48-.9.57-.21,1.21-.32,1.9-.32s1.32.11,1.89.32c.57.21,1.06.51,1.47.9.41.39.73.85.96,1.39.23.54.34,1.13.34,1.78s-.11,1.24-.34,1.78c-.23.54-.55,1-.96,1.4-.41.39-.9.69-1.47.9-.57.21-1.2.32-1.89.32ZM76.47,490.94c0,.34.06.65.17.94.11.29.27.53.48.74s.45.36.73.48.59.17.93.17.65-.06.93-.17.52-.27.72-.48.36-.45.47-.74c.11-.29.17-.6.17-.94s-.06-.65-.17-.94c-.11-.29-.27-.53-.47-.74s-.44-.37-.72-.48c-.28-.11-.59-.17-.93-.17s-.65.06-.93.17c-.28.11-.52.27-.73.48s-.37.45-.48.74c-.11.29-.17.6-.17.94Z"/>
      </g>
      <g>
        <path d="M42.22,501.58h1.17c.32,0,.58-.02.78-.06.2-.04.36-.13.48-.25.12-.13.2-.3.24-.52.04-.22.06-.51.06-.87h.9v11.49h-1.06v-8.82h-2.57v-.95Z"/>
        <path d="M48.82,508.18c.03.37.13.7.31.99.17.29.4.54.67.74s.58.35.94.46.73.16,1.13.16c.44,0,.86-.07,1.24-.2.38-.13.71-.32.98-.57.27-.25.49-.55.64-.91s.23-.77.23-1.22c0-.42-.07-.81-.21-1.16s-.33-.65-.59-.9c-.25-.25-.56-.44-.93-.58-.37-.14-.78-.21-1.23-.21-.67,0-1.27.14-1.8.43-.53.29-.91.67-1.12,1.14h-1.17l.78-6.35h6.58v.98h-5.6l-.54,4.2c.3-.43.71-.77,1.25-1.01s1.13-.37,1.8-.37c.59,0,1.13.09,1.6.29.48.19.88.45,1.22.79.34.33.6.73.79,1.2.19.47.28.98.28,1.54s-.1,1.11-.31,1.59c-.21.48-.5.89-.87,1.24-.37.34-.81.61-1.33.79-.52.18-1.09.28-1.71.28-.58,0-1.12-.08-1.61-.25-.49-.16-.92-.39-1.28-.68s-.65-.64-.86-1.06c-.22-.41-.35-.87-.39-1.36h1.11Z"/>
        <path d="M60.18,502.87h.95l.05,1.79c.2-.66.54-1.15,1.03-1.48.49-.33,1.06-.49,1.73-.49.73,0,1.32.19,1.78.56.46.38.77.88.94,1.52.18-.69.52-1.21,1.02-1.55.5-.35,1.1-.52,1.8-.52.47,0,.88.08,1.24.23s.66.37.91.66c.25.29.44.63.56,1.02s.19.83.19,1.31v5.44h-1.05v-5.09c0-.81-.17-1.45-.51-1.91-.34-.46-.86-.69-1.55-.69-.38,0-.72.07-1.02.21-.3.14-.56.34-.78.59-.22.25-.38.54-.49.88-.11.34-.17.7-.17,1.09v4.92h-1.05v-5.09c0-.81-.17-1.45-.51-1.91s-.86-.69-1.57-.69c-.38,0-.72.07-1.02.21s-.56.34-.77.59c-.21.25-.38.54-.49.88-.12.34-.17.7-.17,1.09v4.92h-1.05v-8.49Z"/>
        <path d="M73.72,499.87h1.24v1.49h-1.24v-1.49ZM73.83,502.87h1.03v8.49h-1.03v-8.49Z"/>
        <path d="M76.39,502.87h.95l.03,1.81c.21-.66.58-1.15,1.09-1.48.52-.33,1.13-.5,1.84-.5.97,0,1.72.3,2.25.89.52.59.79,1.37.79,2.33v5.44h-1.05v-5.09c0-.81-.18-1.45-.54-1.91s-.92-.69-1.68-.69c-.4,0-.77.07-1.09.21-.33.14-.61.34-.83.59-.23.25-.4.55-.52.89-.12.34-.18.7-.18,1.08v4.92h-1.05v-8.49Z"/>
      </g>
      <g>
        <path d="M414.32,748.38h2.71l2.81,7.47,2.79-7.47h2.7l-4.27,11.11h-2.47l-4.27-11.11Z"/>
        <path d="M428.2,759.64c-.99,0-1.77-.23-2.34-.69-.57-.46-.85-1.09-.85-1.9s.26-1.39.77-1.85c.51-.46,1.2-.69,2.07-.69h3.01v-.38c0-.41-.15-.74-.44-.99-.3-.25-.68-.37-1.16-.37-.39,0-.72.09-1,.27-.28.18-.45.42-.52.71h-2.32c.15-.91.56-1.61,1.22-2.09s1.53-.73,2.6-.73c1.25,0,2.22.31,2.93.94.7.62,1.06,1.49,1.06,2.6v5.01h-1.79l-.27-.97c-.73.75-1.72,1.13-2.97,1.13ZM427.39,756.96c0,.29.12.52.37.69.25.17.58.26.99.26.6,0,1.1-.17,1.5-.52s.61-.8.63-1.37h-2.29c-.37,0-.66.08-.88.25-.22.17-.33.4-.33.68Z"/>
        <path d="M435.34,747.74h2.41v11.74h-2.41v-11.74Z"/>
        <path d="M440.02,747.74h2.41v11.74h-2.41v-11.74Z"/>
        <path d="M448.63,759.71c-.67,0-1.28-.11-1.83-.32-.55-.21-1.03-.51-1.43-.9-.4-.39-.71-.86-.93-1.4-.22-.54-.33-1.13-.33-1.78s.11-1.24.33-1.78.53-1,.94-1.39c.4-.39.88-.68,1.44-.9.55-.21,1.17-.32,1.85-.32.72,0,1.36.12,1.94.37.57.24,1.05.59,1.45,1.03.4.44.69.98.89,1.6.2.62.28,1.32.25,2.08h-6.68c.12.57.37,1.01.76,1.31.39.3.86.45,1.41.45.4,0,.77-.08,1.1-.23s.6-.37.8-.64h2.44c-.37.89-.94,1.58-1.71,2.07-.77.49-1.66.74-2.69.74ZM450.85,754.49c-.14-.51-.39-.91-.77-1.2-.38-.29-.84-.44-1.4-.44s-1,.15-1.38.44-.64.69-.78,1.2h4.33Z"/>
        <path d="M461.42,759.71c-.61,0-1.18-.11-1.71-.33s-.97-.52-1.34-.9c-.37-.39-.66-.85-.87-1.39-.21-.54-.32-1.13-.32-1.78s.11-1.22.32-1.76c.21-.54.5-1,.87-1.39s.82-.69,1.34-.9,1.09-.33,1.71-.33c.52,0,1,.08,1.44.23.44.15.85.37,1.21.64v-4.06h2.41v11.74h-1.79l-.29-.95c-.37.37-.81.66-1.32.86-.51.21-1.06.31-1.67.31ZM459.56,755.31c0,.69.21,1.25.63,1.67.42.43.98.64,1.67.64.34,0,.65-.06.93-.17.28-.11.52-.27.72-.48.2-.21.36-.45.47-.74.11-.29.17-.6.17-.94s-.06-.65-.17-.93c-.11-.28-.27-.52-.47-.73-.2-.21-.44-.37-.72-.48-.28-.12-.59-.17-.93-.17s-.65.06-.94.17c-.29.12-.53.28-.73.48s-.36.45-.47.73-.17.59-.17.93Z"/>
        <path d="M472.68,759.71c-.67,0-1.28-.11-1.83-.32-.56-.21-1.03-.51-1.43-.9-.4-.39-.71-.86-.93-1.4-.22-.54-.33-1.13-.33-1.78s.11-1.24.33-1.78c.22-.54.53-1,.94-1.39.4-.39.88-.68,1.44-.9s1.17-.32,1.85-.32c.72,0,1.36.12,1.93.37.57.24,1.06.59,1.45,1.03.4.44.69.98.89,1.6.2.62.28,1.32.25,2.08h-6.68c.12.57.37,1.01.76,1.31.39.3.86.45,1.41.45.4,0,.77-.08,1.1-.23s.6-.37.8-.64h2.44c-.37.89-.94,1.58-1.71,2.07-.77.49-1.66.74-2.69.74ZM474.9,754.49c-.14-.51-.39-.91-.77-1.2-.38-.29-.84-.44-1.4-.44s-1,.15-1.38.44c-.38.29-.64.69-.78,1.2h4.33Z"/>
        <path d="M487.05,759.71c-.86,0-1.64-.14-2.35-.43-.71-.29-1.32-.68-1.84-1.19-.52-.51-.92-1.12-1.21-1.82-.29-.71-.43-1.49-.43-2.33s.14-1.62.43-2.33c.29-.71.68-1.32,1.19-1.82s1.12-.9,1.82-1.19c.71-.29,1.49-.43,2.33-.43.68,0,1.32.09,1.92.28.6.19,1.14.44,1.63.78s.9.74,1.25,1.21c.35.48.61,1,.78,1.59h-2.71c-.27-.49-.66-.87-1.14-1.13s-1.04-.4-1.67-.4c-.49,0-.93.08-1.34.25s-.76.41-1.05.71-.52.67-.67,1.09c-.16.42-.24.89-.24,1.4s.08.96.24,1.38c.16.42.38.79.67,1.09.29.31.63.55,1.05.72.41.17.87.26,1.38.26.81,0,1.49-.21,2.03-.62s.89-.96,1.05-1.63h-3.6v-1.95h6.27c.06.95-.03,1.83-.28,2.62-.25.8-.63,1.49-1.13,2.06-.51.58-1.13,1.03-1.87,1.35-.74.32-1.57.48-2.49.48Z"/>
        <path d="M497.87,759.71c-.54,0-1.02-.09-1.45-.26-.43-.17-.79-.43-1.09-.75-.3-.33-.53-.72-.69-1.19-.16-.46-.24-.99-.24-1.57v-4.78h2.41v4.54c0,.61.14,1.09.44,1.43.29.34.69.51,1.2.51.55,0,.99-.19,1.32-.56.33-.38.49-.9.49-1.56v-4.35h2.41v8.33h-1.79l-.25-.94c-.34.39-.74.68-1.21.87-.47.19-.98.29-1.53.29Z"/>
        <path d="M507.71,759.64c-.99,0-1.77-.23-2.34-.69-.57-.46-.85-1.09-.85-1.9s.26-1.39.77-1.85c.51-.46,1.2-.69,2.07-.69h3.01v-.38c0-.41-.15-.74-.44-.99-.3-.25-.68-.37-1.16-.37-.39,0-.72.09-1,.27-.28.18-.45.42-.52.71h-2.32c.15-.91.55-1.61,1.22-2.09.67-.49,1.53-.73,2.6-.73,1.25,0,2.22.31,2.93.94s1.05,1.49,1.05,2.6v5.01h-1.79l-.27-.97c-.73.75-1.72,1.13-2.97,1.13ZM506.9,756.96c0,.29.12.52.37.69.25.17.58.26.99.26.6,0,1.1-.17,1.5-.52s.61-.8.63-1.37h-2.28c-.37,0-.66.08-.88.25-.22.17-.33.4-.33.68Z"/>
        <path d="M518.5,759.71c-.61,0-1.18-.11-1.71-.33s-.97-.52-1.34-.9c-.37-.39-.66-.85-.87-1.39-.21-.54-.32-1.13-.32-1.78s.11-1.22.32-1.76c.21-.54.5-1,.87-1.39.37-.39.82-.69,1.34-.9s1.09-.33,1.71-.33c.52,0,1,.08,1.44.23.44.15.85.37,1.21.64v-4.06h2.41v11.74h-1.79l-.29-.95c-.37.37-.81.66-1.32.86-.51.21-1.06.31-1.67.31ZM516.64,755.31c0,.69.21,1.25.63,1.67.42.43.98.64,1.67.64.34,0,.65-.06.93-.17.28-.11.52-.27.72-.48s.36-.45.47-.74c.11-.29.17-.6.17-.94s-.06-.65-.17-.93-.27-.52-.47-.73-.44-.37-.72-.48c-.28-.12-.59-.17-.93-.17s-.65.06-.94.17c-.29.12-.53.28-.73.48-.2.21-.36.45-.47.73-.11.28-.17.59-.17.93Z"/>
        <path d="M528.6,759.64c-.99,0-1.77-.23-2.34-.69-.57-.46-.85-1.09-.85-1.9s.26-1.39.77-1.85c.51-.46,1.2-.69,2.07-.69h3.01v-.38c0-.41-.15-.74-.44-.99-.3-.25-.68-.37-1.16-.37-.39,0-.72.09-1,.27-.28.18-.45.42-.52.71h-2.32c.15-.91.55-1.61,1.22-2.09.67-.49,1.53-.73,2.6-.73,1.25,0,2.22.31,2.93.94s1.05,1.49,1.05,2.6v5.01h-1.79l-.27-.97c-.73.75-1.72,1.13-2.97,1.13ZM527.79,756.96c0,.29.12.52.37.69.25.17.58.26.99.26.6,0,1.1-.17,1.5-.52s.61-.8.63-1.37h-2.28c-.37,0-.66.08-.88.25-.22.17-.33.4-.33.68Z"/>
        <path d="M535.74,747.74h2.41v11.74h-2.41v-11.74Z"/>
        <path d="M543.73,759.71c-.54,0-1.02-.09-1.45-.26-.43-.17-.79-.43-1.09-.75-.3-.33-.53-.72-.69-1.19-.16-.46-.24-.99-.24-1.57v-4.78h2.41v4.54c0,.61.15,1.09.44,1.43.29.34.69.51,1.2.51.55,0,.99-.19,1.32-.56.33-.38.49-.9.49-1.56v-4.35h2.41v8.33h-1.79l-.25-.94c-.34.39-.74.68-1.21.87s-.98.29-1.53.29Z"/>
        <path d="M555.84,759.71c-.52,0-1-.08-1.44-.23-.44-.15-.84-.37-1.19-.64v3.82h-2.41v-11.5h1.79l.27.95c.37-.37.81-.66,1.32-.86.51-.21,1.06-.31,1.67-.31s1.2.11,1.71.33c.52.22.96.52,1.34.9.38.39.67.85.88,1.39.21.54.32,1.13.32,1.76s-.11,1.24-.32,1.78c-.21.54-.5,1-.88,1.39-.38.39-.82.69-1.34.9-.52.22-1.09.33-1.71.33ZM553.11,755.31c0,.34.06.65.17.94.11.29.27.53.48.74s.45.37.73.48c.28.11.59.17.93.17.69,0,1.24-.21,1.67-.64.42-.43.63-.99.63-1.67,0-.34-.06-.65-.17-.93-.11-.28-.27-.52-.47-.73-.2-.21-.44-.37-.73-.48-.29-.12-.6-.17-.94-.17s-.65.06-.93.17c-.28.12-.52.28-.73.48s-.36.45-.48.73-.17.59-.17.93Z"/>
        <path d="M565.71,759.71c-.67,0-1.28-.11-1.83-.32-.56-.21-1.03-.51-1.43-.9-.4-.39-.71-.86-.93-1.4-.22-.54-.33-1.13-.33-1.78s.11-1.24.33-1.78c.22-.54.53-1,.94-1.39.4-.39.88-.68,1.44-.9.56-.21,1.17-.32,1.85-.32.72,0,1.36.12,1.94.37.57.24,1.05.59,1.45,1.03.4.44.69.98.89,1.6.2.62.28,1.32.25,2.08h-6.68c.12.57.37,1.01.76,1.31.39.3.86.45,1.41.45.4,0,.77-.08,1.1-.23s.6-.37.8-.64h2.44c-.37.89-.94,1.58-1.71,2.07-.77.49-1.66.74-2.69.74ZM567.93,754.49c-.14-.51-.39-.91-.77-1.2-.38-.29-.84-.44-1.4-.44s-1,.15-1.38.44-.64.69-.78,1.2h4.33Z"/>
      </g>
      <g>
        <path d="M414.72,770.37c0-.79.08-1.56.24-2.3.16-.74.42-1.4.79-1.97.36-.57.84-1.03,1.42-1.37.58-.34,1.3-.52,2.16-.52,1.12,0,2.01.28,2.67.83s1.07,1.3,1.25,2.23h-1.11c-.12-.66-.43-1.16-.93-1.52s-1.13-.54-1.88-.54c-.61,0-1.14.12-1.57.36s-.79.58-1.06,1.02c-.27.44-.48.96-.63,1.58s-.22,1.29-.25,2.01c.26-.58.7-1.07,1.31-1.46s1.33-.59,2.18-.59c.62,0,1.18.09,1.68.27s.92.44,1.29.77c.36.33.63.73.82,1.2.19.47.29.98.29,1.55,0,.6-.1,1.15-.29,1.64-.2.49-.47.91-.83,1.25s-.79.61-1.3.79c-.51.19-1.08.28-1.71.28s-1.23-.11-1.78-.33c-.55-.22-1.03-.55-1.44-1.01s-.73-1.03-.96-1.73c-.23-.7-.35-1.52-.35-2.47ZM416.06,771.81c0,.44.08.85.25,1.23.16.38.39.7.67.98.29.28.62.49,1.02.65.39.16.81.24,1.27.24s.88-.07,1.25-.21c.37-.14.68-.34.94-.6.26-.26.46-.57.59-.94s.21-.77.21-1.21-.07-.82-.22-1.17c-.15-.35-.35-.65-.61-.9-.26-.25-.57-.44-.94-.57-.37-.13-.78-.2-1.22-.2s-.88.06-1.27.19c-.39.13-.73.31-1.02.54s-.51.52-.67.85c-.16.33-.25.71-.25,1.13Z"/>
        <path d="M424.22,770.06c0-.9.11-1.71.33-2.43.22-.72.53-1.33.93-1.84.4-.51.89-.9,1.45-1.17.57-.27,1.2-.41,1.91-.41s1.36.13,1.93.4c.57.27,1.06.66,1.45,1.17.4.51.7,1.12.92,1.85s.33,1.54.33,2.43-.11,1.71-.33,2.43c-.22.72-.53,1.33-.93,1.84-.4.51-.89.9-1.46,1.17s-1.21.4-1.92.4-1.35-.13-1.91-.4-1.05-.66-1.45-1.17c-.4-.51-.71-1.12-.93-1.84-.22-.72-.33-1.53-.33-2.43ZM425.33,770.06c0,1.54.3,2.74.91,3.58.61.84,1.47,1.26,2.59,1.26s1.97-.42,2.59-1.27c.62-.85.93-2.04.93-3.57s-.31-2.74-.92-3.58c-.61-.85-1.48-1.27-2.6-1.27s-1.97.42-2.59,1.27c-.61.85-.92,2.04-.92,3.58Z"/>
        <path d="M437.59,767.24h.95l.05,1.79c.2-.66.54-1.15,1.03-1.47s1.06-.49,1.73-.49c.73,0,1.32.19,1.78.56s.77.88.94,1.51c.18-.69.52-1.21,1.02-1.55.5-.35,1.1-.52,1.8-.52.47,0,.88.08,1.24.23s.66.37.91.66c.25.29.44.63.56,1.02s.19.83.19,1.31v5.44h-1.05v-5.09c0-.81-.17-1.45-.51-1.91-.34-.46-.86-.69-1.55-.69-.38,0-.72.07-1.02.21-.3.14-.56.34-.78.59-.22.25-.38.54-.49.88-.11.34-.17.7-.17,1.09v4.92h-1.05v-5.09c0-.81-.17-1.45-.51-1.91s-.86-.69-1.57-.69c-.38,0-.72.07-1.02.21-.3.14-.56.34-.77.59-.21.25-.38.54-.49.88-.12.34-.17.7-.17,1.09v4.92h-1.05v-8.49Z"/>
        <path d="M451.14,764.24h1.24v1.49h-1.24v-1.49ZM451.25,767.24h1.03v8.49h-1.03v-8.49Z"/>
        <path d="M453.8,767.24h.95l.03,1.81c.21-.66.58-1.15,1.09-1.48.52-.33,1.13-.5,1.84-.5.97,0,1.72.3,2.25.89.52.59.79,1.37.79,2.33v5.44h-1.05v-5.09c0-.81-.18-1.45-.54-1.91s-.92-.69-1.68-.69c-.4,0-.77.07-1.09.21-.33.14-.61.34-.83.6-.23.25-.4.55-.52.89-.12.34-.18.7-.18,1.08v4.92h-1.05v-8.49Z"/>
      </g>
      <g>
        <path d="M56.15,142.03h4.35c.67,0,1.27.1,1.82.29s1.01.46,1.4.81c.39.35.68.77.89,1.26.21.49.31,1.04.31,1.66s-.1,1.15-.31,1.64c-.21.49-.5.91-.89,1.26-.39.35-.85.62-1.4.81s-1.15.29-1.82.29h-1.82v3.09h-2.52v-11.1ZM60.29,147.87c.67,0,1.17-.16,1.52-.47.35-.31.52-.76.52-1.34s-.17-1.03-.52-1.35c-.35-.32-.86-.48-1.52-.48h-1.63v3.63h1.63Z"/>
        <path d="M66.43,141.4h2.41v11.74h-2.41v-11.74Z"/>
        <path d="M73.89,153.3c-.99,0-1.77-.23-2.34-.69-.57-.46-.85-1.09-.85-1.9s.26-1.39.77-1.85,1.2-.69,2.07-.69h3.01v-.38c0-.41-.15-.74-.45-.99-.29-.25-.68-.37-1.16-.37-.39,0-.72.09-1,.27-.28.18-.45.42-.52.71h-2.32c.15-.91.55-1.61,1.22-2.09s1.53-.73,2.6-.73c1.25,0,2.22.31,2.93.94s1.05,1.49,1.05,2.6v5.01h-1.79l-.27-.97c-.73.75-1.72,1.13-2.97,1.13ZM73.08,150.61c0,.29.12.52.37.69.25.17.58.26.99.26.6,0,1.1-.17,1.5-.52s.61-.8.63-1.37h-2.29c-.37,0-.66.08-.88.25-.22.17-.33.4-.33.68Z"/>
        <path d="M80.71,154.23h.95c.24,0,.45-.02.63-.06.17-.04.32-.1.44-.17.12-.08.22-.19.3-.33.08-.14.16-.31.24-.52l.09-.29-3.74-8.06h2.67l2.24,5.16,1.87-5.16h2.59l-3.71,9.31c-.17.43-.35.79-.55,1.07-.2.28-.43.5-.69.67-.26.16-.57.28-.93.35-.35.07-.77.1-1.26.1h-1.13v-2.08Z"/>
        <path d="M92.37,153.3c-.99,0-1.78-.23-2.34-.69-.57-.46-.85-1.09-.85-1.9s.26-1.39.77-1.85,1.2-.69,2.07-.69h3.01v-.38c0-.41-.15-.74-.44-.99-.3-.25-.68-.37-1.16-.37-.39,0-.72.09-1,.27-.28.18-.45.42-.52.71h-2.32c.15-.91.56-1.61,1.22-2.09.67-.49,1.53-.73,2.6-.73,1.25,0,2.22.31,2.93.94.7.62,1.06,1.49,1.06,2.6v5.01h-1.79l-.27-.97c-.73.75-1.72,1.13-2.97,1.13ZM91.56,150.61c0,.29.12.52.37.69.25.17.58.26.99.26.6,0,1.1-.17,1.5-.52s.61-.8.63-1.37h-2.28c-.37,0-.66.08-.88.25-.22.17-.33.4-.33.68Z"/>
        <path d="M102.71,153.36c-.57,0-1.09-.07-1.55-.21-.46-.14-.86-.33-1.19-.59-.33-.25-.58-.56-.76-.92-.18-.36-.27-.76-.27-1.19h2.36c.01.34.14.61.4.81.25.2.6.3,1.05.3.38,0,.68-.07.89-.21.21-.14.32-.34.32-.58,0-.26-.14-.48-.43-.65-.29-.17-.75-.31-1.4-.43-1.07-.19-1.85-.49-2.34-.91-.49-.42-.74-.98-.74-1.67,0-.81.3-1.44.91-1.87.61-.43,1.47-.65,2.59-.65s1.99.24,2.62.71c.62.47.96,1.15,1.02,2.04h-2.3c-.02-.32-.15-.56-.39-.74-.24-.17-.56-.26-.96-.26-.36,0-.64.07-.85.21-.21.14-.31.33-.31.57s.13.45.4.59c.27.14.76.29,1.47.44,2.05.41,3.08,1.3,3.08,2.65,0,.79-.32,1.42-.96,1.88-.64.46-1.53.69-2.66.69Z"/>
        <path d="M114.64,153.36c-.61,0-1.18-.11-1.71-.33s-.97-.52-1.34-.9c-.37-.39-.66-.85-.87-1.39-.21-.54-.32-1.13-.32-1.78s.11-1.22.32-1.76c.21-.54.5-1,.87-1.39.37-.39.82-.69,1.34-.9.52-.22,1.09-.33,1.71-.33.52,0,1,.08,1.44.23.45.15.85.37,1.21.64v-4.06h2.41v11.74h-1.79l-.29-.95c-.37.37-.81.66-1.32.86-.51.21-1.06.31-1.67.31ZM112.78,148.96c0,.69.21,1.25.63,1.67.42.43.98.64,1.67.64.34,0,.65-.06.93-.17.28-.11.52-.27.72-.48.2-.21.36-.45.47-.74s.17-.6.17-.94-.05-.65-.17-.93-.27-.52-.47-.73c-.2-.21-.44-.37-.72-.48-.28-.12-.59-.17-.93-.17s-.65.06-.94.17c-.29.12-.53.28-.73.48-.2.21-.36.45-.47.73s-.17.59-.17.93Z"/>
        <path d="M125.9,153.36c-.67,0-1.28-.11-1.83-.32-.56-.21-1.03-.51-1.43-.9-.4-.39-.71-.86-.93-1.4s-.33-1.13-.33-1.78.11-1.24.33-1.78c.22-.54.53-1,.94-1.39.4-.39.88-.68,1.44-.9.55-.21,1.17-.32,1.85-.32.72,0,1.37.12,1.94.37.57.24,1.05.59,1.45,1.03.4.44.69.98.89,1.6s.28,1.32.25,2.08h-6.68c.12.57.37,1.01.76,1.31.39.3.86.45,1.41.45.4,0,.77-.08,1.1-.23.33-.15.6-.37.8-.64h2.44c-.37.89-.94,1.58-1.71,2.07s-1.66.74-2.69.74ZM128.12,148.14c-.14-.51-.39-.91-.77-1.2s-.84-.44-1.4-.44-1,.15-1.38.44c-.38.29-.64.69-.78,1.2h4.33Z"/>
        <path d="M58.82,163.43h-3.52v-2.36h9.57v2.36h-3.52v8.74h-2.52v-8.74Z"/>
        <path d="M65.72,161.15c0-.44.14-.81.43-1.09.29-.28.66-.42,1.12-.42s.84.14,1.13.42c.29.28.43.64.43,1.09s-.14.81-.43,1.09c-.29.28-.66.42-1.13.42s-.84-.14-1.12-.42c-.29-.28-.43-.64-.43-1.09ZM66.07,163.84h2.41v8.33h-2.41v-8.33Z"/>
        <path d="M68.81,173.54h.83c.38,0,.66-.1.85-.29s.28-.54.28-1.02v-8.38h2.41v8.42c0,1.14-.25,1.99-.75,2.55-.5.56-1.31.84-2.44.84h-1.17v-2.13ZM70.4,161.15c0-.44.14-.81.43-1.09.29-.28.66-.42,1.12-.42s.83.14,1.11.42c.29.28.43.64.43,1.09s-.14.81-.43,1.09c-.29.28-.66.42-1.11.42s-.84-.14-1.12-.42c-.29-.28-.43-.64-.43-1.09Z"/>
        <path d="M78.76,172.4c-.54,0-1.02-.09-1.45-.26-.43-.17-.79-.43-1.09-.75-.3-.33-.53-.72-.69-1.19-.16-.47-.24-.99-.24-1.57v-4.77h2.41v4.54c0,.61.15,1.09.44,1.43.29.34.69.51,1.2.51.55,0,.99-.19,1.32-.56.33-.38.49-.9.49-1.56v-4.35h2.41v8.33h-1.79l-.25-.94c-.34.39-.74.68-1.21.87-.47.19-.98.29-1.53.29Z"/>
        <path d="M88.59,172.33c-.99,0-1.77-.23-2.34-.69-.57-.46-.85-1.09-.85-1.9s.26-1.39.77-1.85c.51-.46,1.2-.69,2.07-.69h3.01v-.38c0-.41-.15-.74-.44-.99s-.68-.37-1.16-.37c-.39,0-.72.09-1,.27-.28.18-.45.42-.52.71h-2.32c.15-.91.55-1.61,1.22-2.09.67-.49,1.53-.73,2.6-.73,1.25,0,2.22.31,2.93.94s1.05,1.49,1.05,2.6v5.01h-1.79l-.27-.97c-.73.75-1.72,1.13-2.97,1.13ZM87.78,169.65c0,.29.12.52.37.69.25.17.58.26.99.26.6,0,1.1-.17,1.5-.52s.61-.8.63-1.37h-2.28c-.37,0-.66.08-.88.25-.22.17-.33.4-.33.68Z"/>
        <path d="M95.73,163.84h1.79l.25.94c.34-.39.75-.68,1.22-.87s.99-.29,1.55-.29,1.03.09,1.46.26c.43.17.8.43,1.1.75.3.33.53.72.69,1.19.16.47.24.98.24,1.55v4.79h-2.41v-4.54c0-.61-.15-1.09-.44-1.44-.29-.34-.7-.52-1.21-.52-.56,0-1.01.19-1.34.56-.33.38-.5.9-.5,1.56v4.36h-2.41v-8.33Z"/>
        <path d="M108.93,172.33c-.99,0-1.77-.23-2.34-.69-.57-.46-.85-1.09-.85-1.9s.26-1.39.77-1.85c.51-.46,1.2-.69,2.07-.69h3.01v-.38c0-.41-.15-.74-.44-.99s-.68-.37-1.16-.37c-.39,0-.72.09-1,.27-.28.18-.45.42-.52.71h-2.32c.15-.91.56-1.61,1.22-2.09s1.53-.73,2.6-.73c1.25,0,2.22.31,2.93.94.7.62,1.06,1.49,1.06,2.6v5.01h-1.79l-.27-.97c-.73.75-1.72,1.13-2.97,1.13ZM108.12,169.65c0,.29.12.52.37.69.25.17.58.26.99.26.6,0,1.1-.17,1.5-.52s.61-.8.63-1.37h-2.29c-.37,0-.66.08-.88.25-.22.17-.32.4-.32.68Z"/>
      </g>
      <g>
        <path d="M55.72,182.78h1.17c.32,0,.58-.02.78-.06.2-.04.36-.13.48-.25.12-.13.2-.3.24-.52.04-.22.06-.51.06-.87h.9v11.49h-1.06v-8.82h-2.57v-.95Z"/>
        <path d="M61.19,186.89c0-.9.11-1.71.33-2.43.22-.72.53-1.33.93-1.84.4-.51.89-.9,1.45-1.17.57-.27,1.2-.41,1.91-.41s1.36.13,1.93.4c.57.27,1.06.66,1.45,1.17.4.51.7,1.12.92,1.85.22.72.33,1.54.33,2.44s-.11,1.71-.33,2.43-.53,1.33-.93,1.84c-.4.51-.89.9-1.46,1.17s-1.21.4-1.92.4-1.35-.13-1.91-.4-1.05-.66-1.45-1.17c-.4-.51-.71-1.12-.93-1.84s-.33-1.53-.33-2.43ZM62.31,186.89c0,1.54.3,2.74.91,3.58.61.84,1.47,1.26,2.59,1.26s1.97-.42,2.59-1.27c.62-.85.93-2.04.93-3.57s-.31-2.74-.92-3.58c-.61-.85-1.48-1.27-2.6-1.27s-1.97.42-2.59,1.27c-.61.85-.92,2.04-.92,3.58Z"/>
        <path d="M74.57,184.07h.95l.05,1.79c.2-.66.54-1.15,1.03-1.48.49-.33,1.06-.49,1.73-.49.73,0,1.32.19,1.78.56.45.38.77.88.94,1.52.18-.69.52-1.21,1.02-1.55.5-.35,1.1-.52,1.8-.52.46,0,.88.08,1.24.23.36.15.66.37.91.66.25.29.44.63.56,1.02s.19.83.19,1.31v5.44h-1.05v-5.09c0-.81-.17-1.45-.51-1.91-.34-.46-.86-.69-1.55-.69-.38,0-.72.07-1.02.21-.3.14-.56.34-.78.59-.22.25-.38.54-.49.88s-.17.7-.17,1.09v4.92h-1.05v-5.09c0-.81-.17-1.45-.51-1.91-.34-.46-.86-.69-1.57-.69-.38,0-.72.07-1.02.21-.3.14-.56.34-.77.59-.21.25-.38.54-.49.88s-.17.7-.17,1.09v4.92h-1.05v-8.49Z"/>
        <path d="M88.12,181.07h1.24v1.49h-1.24v-1.49ZM88.23,184.07h1.03v8.49h-1.03v-8.49Z"/>
        <path d="M90.78,184.07h.95l.03,1.81c.21-.66.58-1.15,1.09-1.48.52-.33,1.13-.5,1.84-.5.97,0,1.72.3,2.25.89.52.59.79,1.37.79,2.33v5.44h-1.05v-5.09c0-.81-.18-1.45-.54-1.91s-.92-.69-1.68-.69c-.4,0-.77.07-1.09.21-.33.14-.61.34-.83.6-.23.25-.4.55-.52.89-.12.34-.18.7-.18,1.08v4.92h-1.05v-8.49Z"/>
      </g>
      <g>
        <path d="M455.64,91.45l-3.51.33-.22-2.35,9.52-.89.22,2.35-3.51.33.81,8.7-2.51.24-.81-8.7Z"/>
        <path d="M462.3,88.53c-.04-.44.07-.82.33-1.12.26-.3.62-.48,1.08-.52.46-.04.85.06,1.16.31.31.25.49.6.53,1.04.04.44-.07.82-.33,1.12-.26.31-.62.48-1.08.52-.46.04-.85-.06-1.16-.31-.31-.25-.49-.6-.53-1.04ZM462.9,91.18l2.4-.22.77,8.29-2.4.22-.77-8.29Z"/>
        <path d="M466.53,100.58l.82-.08c.38-.04.65-.16.82-.37.17-.21.23-.56.18-1.04l-.78-8.34,2.4-.22.78,8.39c.11,1.14-.07,2.01-.51,2.61-.45.61-1.23.96-2.35,1.06l-1.17.11-.2-2.12ZM466.96,88.1c-.04-.44.07-.82.33-1.12.26-.31.62-.48,1.08-.52.45-.04.83.06,1.15.32.31.25.49.6.53,1.04.04.44-.07.82-.33,1.12-.26.31-.61.48-1.07.52-.46.04-.85-.06-1.16-.31-.31-.25-.49-.6-.53-1.04Z"/>
        <path d="M476.33,98.52c-.54.05-1.03,0-1.47-.13-.44-.13-.83-.35-1.16-.65-.33-.3-.6-.67-.8-1.12-.2-.45-.33-.96-.38-1.54l-.44-4.75,2.4-.22.42,4.52c.06.61.25,1.07.57,1.38s.73.44,1.24.39c.55-.05.97-.28,1.26-.68.29-.4.41-.94.34-1.6l-.4-4.33,2.4-.22.78,8.29-1.79.17-.34-.91c-.3.42-.68.75-1.13.98-.45.23-.95.38-1.5.43Z"/>
        <path d="M486.12,97.54c-.99.09-1.79-.06-2.39-.47-.61-.41-.95-1.01-1.02-1.81-.07-.77.13-1.41.59-1.91.47-.5,1.13-.8,2-.88l3-.28-.04-.38c-.04-.41-.22-.73-.54-.95-.32-.22-.71-.31-1.19-.26-.39.04-.71.16-.97.36-.26.2-.41.46-.46.76l-2.31.21c.06-.92.4-1.65,1.02-2.2.62-.55,1.46-.87,2.52-.97,1.24-.12,2.24.1,3,.66.76.56,1.19,1.39,1.29,2.49l.47,4.99-1.78.17-.36-.94c-.66.82-1.61,1.28-2.85,1.4ZM485.06,94.95c.03.28.17.5.44.65.26.15.6.21,1.01.17.6-.06,1.08-.27,1.44-.65s.53-.85.5-1.42l-2.27.21c-.37.04-.65.15-.85.33s-.29.42-.26.71Z"/>
        <path d="M492.43,88.43l1.79-.17.34.91c.3-.42.68-.75,1.13-.98.46-.23.96-.38,1.52-.43.54-.05,1.03,0,1.48.12.45.13.84.35,1.17.65.33.3.6.67.8,1.12.2.45.33.96.38,1.53l.45,4.77-2.4.22-.42-4.52c-.06-.61-.25-1.07-.57-1.39-.32-.32-.74-.45-1.26-.4-.56.05-.99.28-1.28.68-.3.41-.41.94-.35,1.6l.41,4.34-2.4.22-.77-8.29Z"/>
        <path d="M506.37,95.65c-.99.09-1.79-.06-2.39-.47-.61-.41-.95-1.01-1.02-1.81-.07-.77.13-1.41.59-1.91.47-.5,1.13-.8,2-.88l3-.28-.04-.38c-.04-.41-.22-.73-.53-.95-.32-.22-.71-.31-1.19-.26-.39.04-.71.16-.97.36-.26.21-.41.46-.45.76l-2.31.21c.06-.92.4-1.65,1.02-2.2.62-.55,1.46-.87,2.52-.97,1.24-.12,2.24.1,3,.66.76.56,1.19,1.39,1.29,2.49l.47,4.99-1.78.17-.36-.94c-.66.82-1.61,1.28-2.85,1.4ZM505.31,93.06c.03.28.17.5.43.65.26.15.6.21,1.01.17.6-.06,1.08-.27,1.45-.65.36-.38.53-.85.5-1.42l-2.27.21c-.37.03-.65.15-.85.33s-.29.42-.26.71Z"/>
        <path d="M518.98,83.16l2.46-.23,5.42,10.65-2.68.25-.92-1.84-4.39.41-.56,1.98-2.69.25,3.36-11.47ZM522.45,90.07l-1.94-3.9-1.17,4.19,3.11-.29Z"/>
        <path d="M526.7,82.52c-.04-.44.07-.82.33-1.12.26-.3.62-.48,1.08-.52.46-.04.85.06,1.16.31.31.25.49.6.53,1.04.04.44-.07.82-.33,1.12-.26.31-.62.48-1.08.52-.46.04-.85-.06-1.16-.31-.31-.25-.49-.6-.53-1.04ZM527.29,85.17l2.4-.22.77,8.29-2.4.22-.77-8.29Z"/>
        <path d="M531.95,84.74l1.78-.17.42,1.08c.24-.42.55-.73.93-.94.38-.21.88-.34,1.49-.4l.9-.08.2,2.18-.92.08c-.69.07-1.22.3-1.58.71s-.49,1.05-.41,1.95l.34,3.67-2.4.22-.77-8.29Z"/>
        <path d="M544.9,92.12c-.52.05-1,.02-1.46-.09-.46-.11-.87-.29-1.24-.53l.36,3.81-2.4.22-1.07-11.45,1.79-.17.36.92c.33-.4.74-.73,1.23-.98.49-.25,1.03-.41,1.63-.46.62-.06,1.2,0,1.74.17.54.17,1.01.43,1.42.78.41.35.75.78,1.01,1.3s.42,1.09.48,1.72c.06.64,0,1.24-.15,1.8-.16.56-.41,1.04-.75,1.46-.34.42-.75.76-1.25,1.03s-1.05.42-1.68.48ZM541.77,87.99c.03.34.12.64.25.92.14.27.32.5.54.69.22.19.48.32.77.41.29.08.6.11.94.08.68-.06,1.22-.33,1.6-.79.38-.47.54-1.04.48-1.73-.03-.34-.12-.64-.25-.91-.14-.27-.31-.5-.53-.68s-.48-.32-.77-.41c-.29-.09-.61-.12-.95-.09-.34.03-.64.12-.91.26-.27.14-.5.33-.68.55-.19.22-.32.48-.41.77-.08.29-.11.6-.08.94Z"/>
        <path d="M554.88,91.18c-.7.07-1.34.02-1.93-.14-.59-.16-1.11-.41-1.55-.76-.45-.35-.81-.78-1.08-1.3-.28-.52-.45-1.09-.5-1.74-.06-.64,0-1.24.17-1.8.18-.56.45-1.05.83-1.47s.84-.77,1.39-1.03c.55-.26,1.17-.43,1.87-.49.68-.06,1.32-.02,1.91.14.59.16,1.1.41,1.55.75.45.35.81.78,1.08,1.29.28.52.44,1.1.5,1.74.06.64,0,1.24-.17,1.8-.18.56-.45,1.05-.83,1.48-.37.43-.84.77-1.38,1.04s-1.17.43-1.85.49ZM552.18,87.02c.03.34.12.64.25.92.14.27.32.5.54.69.22.19.48.32.77.41.29.08.6.11.94.08.34-.03.64-.12.91-.25s.49-.32.67-.54.31-.48.4-.78c.08-.29.11-.61.08-.95-.03-.34-.12-.64-.25-.92-.14-.27-.32-.5-.54-.69-.22-.19-.47-.32-.76-.41s-.6-.11-.94-.08c-.34.03-.64.12-.91.25-.27.14-.5.32-.68.54-.19.22-.32.48-.4.78-.08.29-.11.61-.08.95Z"/>
        <path d="M560.4,82.08l1.78-.17.42,1.08c.24-.42.55-.73.93-.94.38-.21.88-.34,1.49-.4l.9-.08.2,2.18-.92.08c-.69.07-1.22.3-1.57.71-.36.4-.49,1.05-.41,1.95l.34,3.67-2.4.22-.77-8.29Z"/>
        <path d="M572.29,89.33c-1.05.1-1.89-.09-2.5-.58s-.97-1.24-1.06-2.26l-.3-3.19-1.61.15-.18-1.96.74-.07c.22-.02.4-.05.55-.1.14-.04.26-.11.35-.2.09-.09.15-.21.19-.35.04-.15.07-.33.08-.54l.04-1.09,1.86-.17.2,2.15,2.28-.21.18,1.96-2.28.21.26,2.83c.09.95.6,1.38,1.52,1.29l1-.09.2,2.08-1.52.14Z"/>
      </g>
      <g>
        <path d="M454.63,116.12l5.34-8.39,1.2-.11.72,7.74,1.58-.15.09.98-1.58.15.24,2.57-1.06.1-.24-2.57-6.21.58-.08-.9ZM460.83,115.46l-.59-6.37-4.3,6.82,4.9-.46Z"/>
        <path d="M464.02,113.06c-.08-.89-.05-1.71.1-2.45.15-.74.4-1.38.75-1.92.35-.54.8-.98,1.34-1.3.54-.33,1.16-.52,1.87-.59.71-.07,1.37,0,1.96.22.59.22,1.11.56,1.55,1.03.44.47.8,1.05,1.09,1.75.28.7.47,1.5.55,2.39.08.9.05,1.71-.1,2.45-.15.74-.4,1.38-.75,1.92-.35.54-.8.98-1.35,1.3s-1.17.52-1.87.58c-.71.07-1.35,0-1.94-.22-.59-.22-1.11-.56-1.55-1.03s-.81-1.05-1.09-1.75c-.28-.7-.47-1.49-.55-2.39ZM465.13,112.96c.14,1.54.56,2.7,1.24,3.48s1.58,1.12,2.7,1.01c1.11-.1,1.93-.6,2.46-1.51.54-.9.73-2.11.59-3.64-.14-1.54-.56-2.7-1.25-3.48-.69-.79-1.59-1.13-2.71-1.02-1.11.1-1.92.6-2.46,1.5-.53.9-.73,2.12-.58,3.65Z"/>
        <path d="M477.07,109.01l.95-.09.21,1.78c.14-.67.43-1.19.89-1.56.45-.37,1.01-.59,1.67-.65.73-.07,1.33.06,1.82.4.49.33.84.81,1.07,1.42.12-.7.41-1.25.87-1.64s1.05-.62,1.74-.69c.46-.04.88,0,1.25.11.37.12.7.31.97.57.27.26.49.58.66.97s.27.81.31,1.29l.51,5.42-1.04.1-.47-5.07c-.08-.81-.3-1.43-.68-1.86-.38-.43-.92-.61-1.61-.54-.38.04-.71.14-1,.31-.29.17-.53.39-.72.66-.19.27-.33.58-.41.92-.08.35-.1.72-.06,1.1l.46,4.9-1.04.1-.47-5.07c-.08-.81-.3-1.43-.68-1.86-.38-.43-.92-.61-1.63-.54-.38.04-.71.14-1,.31s-.52.39-.71.66c-.19.27-.32.57-.41.92-.08.35-.11.72-.07,1.11l.46,4.9-1.04.1-.79-8.45Z"/>
        <path d="M490.28,104.76l1.23-.11.14,1.48-1.23.12-.14-1.49ZM490.67,107.74l1.03-.1.79,8.45-1.03.1-.79-8.45Z"/>
        <path d="M493.21,107.5l.95-.09.2,1.8c.15-.67.47-1.2.95-1.58.48-.38,1.08-.6,1.79-.67.97-.09,1.74.13,2.32.68.58.54.91,1.29,1,2.25l.51,5.42-1.04.1-.47-5.07c-.08-.81-.31-1.43-.71-1.85-.4-.42-.98-.6-1.74-.53-.4.04-.76.14-1.07.31-.31.17-.57.4-.77.67-.2.27-.35.58-.44.93s-.12.71-.08,1.09l.46,4.9-1.04.1-.79-8.45Z"/>
      </g>
      <path class="cls-19" d="M106.38,490.41c0,2.6-2,4.7-4.6,4.7s-4.6-2.1-4.6-4.7,2-4.7,4.6-4.7,4.6,2.1,4.6,4.7Z"/>
      <path class="cls-19" d="M380.76,822.98c0,2.6-2,4.7-4.6,4.7s-4.6-2.1-4.6-4.7,2-4.7,4.6-4.7,4.6,2.1,4.6,4.7Z"/>
      <path class="cls-19" d="M405.3,755.2c0,2.6-2,4.7-4.6,4.7s-4.6-2.1-4.6-4.7,2-4.7,4.6-4.7,4.6,2.1,4.6,4.7Z"/>
      <polyline class="cls-11" points="124.3 474.01 120.92 480.45 114.74 483.61 108.12 486.89"/>
    </g>
  </g>
</svg>